0
SECTION
2
HEADER
9
$INSUNITS
70
4
0
ENDSEC
0
SECTION
2
TABLES
0
TABLE
2
LTYPE
0
LTYPE
72
65
70
64
2
CONTINUOUS
3
______
73
0
40
0
0
ENDTAB
0
TABLE
2
LAYER
0
ENDTAB
0
ENDSEC
0
SECTION
2
ENTITIES
0
LINE
8
0
10
88.9619699
20
-170.8992804
11
88.9992807
21
-67.1992804
0
LINE
8
0
10
90.9992806
20
-65.2
11
269.85
21
-65.2
0
LINE
8
0
10
271.85
20
-67.2
11
271.85
21
-170.9
0
LINE
8
0
10
269.85
20
-172.9
11
90.9619698
21
-172.9
0
ARC
8
0
10
90.9992806
20
-67.2
40
2
50
90
51
179.979385
0
ARC
8
0
10
269.85
20
-67.2
40
2
50
0
51
90
0
ARC
8
0
10
269.85
20
-170.9
40
2
50
270
51
0
0
ARC
8
0
10
90.9619698
20
-170.9
40
2
50
179.979385
51
270
0
LINE
8
0
10
91.25
20
-108.25
11
108.75
21
-108.25
0
LINE
8
0
10
108.75
20
-108.25
11
108.75
21
-91.75
0
LINE
8
0
10
108.75
20
-91.75
11
91.25
21
-91.75
0
LINE
8
0
10
91.25
20
-91.75
11
91.25
21
-108.25
0
LINE
8
0
10
91.25
20
-89.2
11
108.75
21
-89.2
0
LINE
8
0
10
108.75
20
-89.2
11
108.75
21
-72.7
0
LINE
8
0
10
108.75
20
-72.7
11
91.25
21
-72.7
0
LINE
8
0
10
91.25
20
-72.7
11
91.25
21
-89.2
0
LINE
8
0
10
110.3
20
-108.25
11
127.8
21
-108.25
0
LINE
8
0
10
127.8
20
-108.25
11
127.8
21
-91.75
0
LINE
8
0
10
127.8
20
-91.75
11
110.3
21
-91.75
0
LINE
8
0
10
110.3
20
-91.75
11
110.3
21
-108.25
0
LINE
8
0
10
110.3
20
-89.2
11
127.8
21
-89.2
0
LINE
8
0
10
127.8
20
-89.2
11
127.8
21
-72.7
0
LINE
8
0
10
127.8
20
-72.7
11
110.3
21
-72.7
0
LINE
8
0
10
110.3
20
-72.7
11
110.3
21
-89.2
0
LINE
8
0
10
129.35
20
-108.25
11
146.85
21
-108.25
0
LINE
8
0
10
146.85
20
-108.25
11
146.85
21
-91.75
0
LINE
8
0
10
146.85
20
-91.75
11
129.35
21
-91.75
0
LINE
8
0
10
129.35
20
-91.75
11
129.35
21
-108.25
0
LINE
8
0
10
129.35
20
-89.2
11
146.85
21
-89.2
0
LINE
8
0
10
146.85
20
-89.2
11
146.85
21
-72.7
0
LINE
8
0
10
146.85
20
-72.7
11
129.35
21
-72.7
0
LINE
8
0
10
129.35
20
-72.7
11
129.35
21
-89.2
0
LINE
8
0
10
148.4
20
-108.25
11
165.9
21
-108.25
0
LINE
8
0
10
165.9
20
-108.25
11
165.9
21
-91.75
0
LINE
8
0
10
165.9
20
-91.75
11
148.4
21
-91.75
0
LINE
8
0
10
148.4
20
-91.75
11
148.4
21
-108.25
0
LINE
8
0
10
148.4
20
-89.2
11
165.9
21
-89.2
0
LINE
8
0
10
165.9
20
-89.2
11
165.9
21
-72.7
0
LINE
8
0
10
165.9
20
-72.7
11
148.4
21
-72.7
0
LINE
8
0
10
148.4
20
-72.7
11
148.4
21
-89.2
0
LINE
8
0
10
167.45
20
-108.25
11
184.95
21
-108.25
0
LINE
8
0
10
184.95
20
-108.25
11
184.95
21
-91.75
0
LINE
8
0
10
184.95
20
-91.75
11
167.45
21
-91.75
0
LINE
8
0
10
167.45
20
-91.75
11
167.45
21
-108.25
0
LINE
8
0
10
167.45
20
-89.2
11
184.95
21
-89.2
0
LINE
8
0
10
184.95
20
-89.2
11
184.95
21
-72.7
0
LINE
8
0
10
184.95
20
-72.7
11
167.45
21
-72.7
0
LINE
8
0
10
167.45
20
-72.7
11
167.45
21
-89.2
0
LINE
8
0
10
186.5
20
-108.25
11
204
21
-108.25
0
LINE
8
0
10
204
20
-108.25
11
204
21
-91.75
0
LINE
8
0
10
204
20
-91.75
11
186.5
21
-91.75
0
LINE
8
0
10
186.5
20
-91.75
11
186.5
21
-108.25
0
LINE
8
0
10
186.5
20
-89.2
11
204
21
-89.2
0
LINE
8
0
10
204
20
-89.2
11
204
21
-72.7
0
LINE
8
0
10
204
20
-72.7
11
186.5
21
-72.7
0
LINE
8
0
10
186.5
20
-72.7
11
186.5
21
-89.2
0
LINE
8
0
10
205.55
20
-108.25
11
223.05
21
-108.25
0
LINE
8
0
10
223.05
20
-108.25
11
223.05
21
-91.75
0
LINE
8
0
10
223.05
20
-91.75
11
205.55
21
-91.75
0
LINE
8
0
10
205.55
20
-91.75
11
205.55
21
-108.25
0
LINE
8
0
10
205.55
20
-89.2
11
223.05
21
-89.2
0
LINE
8
0
10
223.05
20
-89.2
11
223.05
21
-72.7
0
LINE
8
0
10
223.05
20
-72.7
11
205.55
21
-72.7
0
LINE
8
0
10
205.55
20
-72.7
11
205.55
21
-89.2
0
LINE
8
0
10
224.6
20
-108.25
11
242.1
21
-108.25
0
LINE
8
0
10
242.1
20
-108.25
11
242.1
21
-91.75
0
LINE
8
0
10
242.1
20
-91.75
11
224.6
21
-91.75
0
LINE
8
0
10
224.6
20
-91.75
11
224.6
21
-108.25
0
LINE
8
0
10
224.6
20
-89.2
11
242.1
21
-89.2
0
LINE
8
0
10
242.1
20
-89.2
11
242.1
21
-72.7
0
LINE
8
0
10
242.1
20
-72.7
11
224.6
21
-72.7
0
LINE
8
0
10
224.6
20
-72.7
11
224.6
21
-89.2
0
LINE
8
0
10
91.25
20
-127.3
11
108.75
21
-127.3
0
LINE
8
0
10
108.75
20
-127.3
11
108.75
21
-110.8
0
LINE
8
0
10
108.75
20
-110.8
11
91.25
21
-110.8
0
LINE
8
0
10
91.25
20
-110.8
11
91.25
21
-127.3
0
LINE
8
0
10
110.3
20
-127.3
11
127.8
21
-127.3
0
LINE
8
0
10
127.8
20
-127.3
11
127.8
21
-110.8
0
LINE
8
0
10
127.8
20
-110.8
11
110.3
21
-110.8
0
LINE
8
0
10
110.3
20
-110.8
11
110.3
21
-127.3
0
LINE
8
0
10
129.35
20
-127.3
11
146.85
21
-127.3
0
LINE
8
0
10
146.85
20
-127.3
11
146.85
21
-110.8
0
LINE
8
0
10
146.85
20
-110.8
11
129.35
21
-110.8
0
LINE
8
0
10
129.35
20
-110.8
11
129.35
21
-127.3
0
LINE
8
0
10
148.4
20
-127.3
11
165.9
21
-127.3
0
LINE
8
0
10
165.9
20
-127.3
11
165.9
21
-110.8
0
LINE
8
0
10
165.9
20
-110.8
11
148.4
21
-110.8
0
LINE
8
0
10
148.4
20
-110.8
11
148.4
21
-127.3
0
LINE
8
0
10
167.45
20
-127.3
11
184.95
21
-127.3
0
LINE
8
0
10
184.95
20
-127.3
11
184.95
21
-110.8
0
LINE
8
0
10
184.95
20
-110.8
11
167.45
21
-110.8
0
LINE
8
0
10
167.45
20
-110.8
11
167.45
21
-127.3
0
LINE
8
0
10
186.5
20
-127.3
11
204
21
-127.3
0
LINE
8
0
10
204
20
-127.3
11
204
21
-110.8
0
LINE
8
0
10
204
20
-110.8
11
186.5
21
-110.8
0
LINE
8
0
10
186.5
20
-110.8
11
186.5
21
-127.3
0
LINE
8
0
10
215.075
20
-127.3
11
232.575
21
-127.3
0
LINE
8
0
10
232.575
20
-127.3
11
232.575
21
-110.8
0
LINE
8
0
10
232.575
20
-110.8
11
215.075
21
-110.8
0
LINE
8
0
10
215.075
20
-110.8
11
215.075
21
-127.3
0
LINE
8
0
10
91.25
20
-146.35
11
108.75
21
-146.35
0
LINE
8
0
10
108.75
20
-146.35
11
108.75
21
-129.85
0
LINE
8
0
10
108.75
20
-129.85
11
91.25
21
-129.85
0
LINE
8
0
10
91.25
20
-129.85
11
91.25
21
-146.35
0
LINE
8
0
10
110.3
20
-146.35
11
127.8
21
-146.35
0
LINE
8
0
10
127.8
20
-146.35
11
127.8
21
-129.85
0
LINE
8
0
10
127.8
20
-129.85
11
110.3
21
-129.85
0
LINE
8
0
10
110.3
20
-129.85
11
110.3
21
-146.35
0
LINE
8
0
10
129.35
20
-146.35
11
146.85
21
-146.35
0
LINE
8
0
10
146.85
20
-146.35
11
146.85
21
-129.85
0
LINE
8
0
10
146.85
20
-129.85
11
129.35
21
-129.85
0
LINE
8
0
10
129.35
20
-129.85
11
129.35
21
-146.35
0
LINE
8
0
10
148.4
20
-146.35
11
165.9
21
-146.35
0
LINE
8
0
10
165.9
20
-146.35
11
165.9
21
-129.85
0
LINE
8
0
10
165.9
20
-129.85
11
148.4
21
-129.85
0
LINE
8
0
10
148.4
20
-129.85
11
148.4
21
-146.35
0
LINE
8
0
10
167.45
20
-146.35
11
184.95
21
-146.35
0
LINE
8
0
10
184.95
20
-146.35
11
184.95
21
-129.85
0
LINE
8
0
10
184.95
20
-129.85
11
167.45
21
-129.85
0
LINE
8
0
10
167.45
20
-129.85
11
167.45
21
-146.35
0
LINE
8
0
10
186.5
20
-146.35
11
204
21
-146.35
0
LINE
8
0
10
204
20
-146.35
11
204
21
-129.85
0
LINE
8
0
10
204
20
-129.85
11
186.5
21
-129.85
0
LINE
8
0
10
186.5
20
-129.85
11
186.5
21
-146.35
0
LINE
8
0
10
205.55
20
-146.35
11
223.05
21
-146.35
0
LINE
8
0
10
223.05
20
-146.35
11
223.05
21
-129.85
0
LINE
8
0
10
223.05
20
-129.85
11
205.55
21
-129.85
0
LINE
8
0
10
205.55
20
-129.85
11
205.55
21
-146.35
0
LINE
8
0
10
224.6
20
-146.35
11
242.1
21
-146.35
0
LINE
8
0
10
242.1
20
-146.35
11
242.1
21
-129.85
0
LINE
8
0
10
242.1
20
-129.85
11
224.6
21
-129.85
0
LINE
8
0
10
224.6
20
-129.85
11
224.6
21
-146.35
0
LINE
8
0
10
93.63125
20
-165.4
11
111.13125
21
-165.4
0
LINE
8
0
10
111.13125
20
-165.4
11
111.13125
21
-148.9
0
LINE
8
0
10
111.13125
20
-148.9
11
93.63125
21
-148.9
0
LINE
8
0
10
93.63125
20
-148.9
11
93.63125
21
-165.4
0
LINE
8
0
10
117.44375
20
-165.4
11
134.94375
21
-165.4
0
LINE
8
0
10
134.94375
20
-165.4
11
134.94375
21
-148.9
0
LINE
8
0
10
134.94375
20
-148.9
11
117.44375
21
-148.9
0
LINE
8
0
10
117.44375
20
-148.9
11
117.44375
21
-165.4
0
LINE
8
0
10
141.25625
20
-165.4
11
158.75625
21
-165.4
0
LINE
8
0
10
158.75625
20
-165.4
11
158.75625
21
-148.9
0
LINE
8
0
10
158.75625
20
-148.9
11
141.25625
21
-148.9
0
LINE
8
0
10
141.25625
20
-148.9
11
141.25625
21
-165.4
0
LINE
8
0
10
165.06875
20
-165.4
11
182.56875
21
-165.4
0
LINE
8
0
10
182.56875
20
-165.4
11
182.56875
21
-148.9
0
LINE
8
0
10
182.56875
20
-148.9
11
165.06875
21
-148.9
0
LINE
8
0
10
165.06875
20
-148.9
11
165.06875
21
-165.4
0
LINE
8
0
10
186.5
20
-165.4
11
204
21
-165.4
0
LINE
8
0
10
204
20
-165.4
11
204
21
-148.9
0
LINE
8
0
10
204
20
-148.9
11
186.5
21
-148.9
0
LINE
8
0
10
186.5
20
-148.9
11
186.5
21
-165.4
0
LINE
8
0
10
205.55
20
-165.4
11
223.05
21
-165.4
0
LINE
8
0
10
223.05
20
-165.4
11
223.05
21
-148.9
0
LINE
8
0
10
223.05
20
-148.9
11
205.55
21
-148.9
0
LINE
8
0
10
205.55
20
-148.9
11
205.55
21
-165.4
0
LINE
8
0
10
224.6
20
-165.4
11
242.1
21
-165.4
0
LINE
8
0
10
242.1
20
-165.4
11
242.1
21
-148.9
0
LINE
8
0
10
242.1
20
-148.9
11
224.6
21
-148.9
0
LINE
8
0
10
224.6
20
-148.9
11
224.6
21
-165.4
0
LINE
8
0
10
234.75
20
-127.05
11
241.75
21
-127.05
0
LINE
8
0
10
241.75
20
-127.05
11
241.75
21
-113.05
0
LINE
8
0
10
241.75
20
-113.05
11
234.75
21
-113.05
0
LINE
8
0
10
234.75
20
-113.05
11
234.75
21
-127.05
0
LINE
8
0
10
205.9
20
-127.05
11
212.9
21
-127.05
0
LINE
8
0
10
212.9
20
-127.05
11
212.9
21
-113.05
0
LINE
8
0
10
212.9
20
-113.05
11
205.9
21
-113.05
0
LINE
8
0
10
205.9
20
-113.05
11
205.9
21
-127.05
0
ENDSEC
0
EOF