0
SECTION
2
HEADER
9
$INSUNITS
70
4
0
ENDSEC
0
SECTION
2
TABLES
0
TABLE
2
LTYPE
0
LTYPE
72
65
70
64
2
CONTINUOUS
3
______
73
0
40
0
0
ENDTAB
0
TABLE
2
LAYER
0
ENDTAB
0
ENDSEC
0
SECTION
2
ENTITIES
0
LINE
8
0
10
91.25
20
-108.25
11
108.75
21
-108.25
0
LINE
8
0
10
108.75
20
-108.25
11
108.75
21
-91.75
0
LINE
8
0
10
108.75
20
-91.75
11
91.25
21
-91.75
0
LINE
8
0
10
91.25
20
-91.75
11
91.25
21
-108.25
0
LINE
8
0
10
91.25
20
-91.25
11
108.75
21
-91.25
0
LINE
8
0
10
108.75
20
-91.25
11
108.75
21
-74.75
0
LINE
8
0
10
108.75
20
-74.75
11
91.25
21
-74.75
0
LINE
8
0
10
91.25
20
-74.75
11
91.25
21
-91.25
0
LINE
8
0
10
109.25
20
-108.25
11
126.75
21
-108.25
0
LINE
8
0
10
126.75
20
-108.25
11
126.75
21
-91.75
0
LINE
8
0
10
126.75
20
-91.75
11
109.25
21
-91.75
0
LINE
8
0
10
109.25
20
-91.75
11
109.25
21
-108.25
0
LINE
8
0
10
109.25
20
-91.25
11
126.75
21
-91.25
0
LINE
8
0
10
126.75
20
-91.25
11
126.75
21
-74.75
0
LINE
8
0
10
126.75
20
-74.75
11
109.25
21
-74.75
0
LINE
8
0
10
109.25
20
-74.75
11
109.25
21
-91.25
0
LINE
8
0
10
127.25
20
-108.25
11
144.75
21
-108.25
0
LINE
8
0
10
144.75
20
-108.25
11
144.75
21
-91.75
0
LINE
8
0
10
144.75
20
-91.75
11
127.25
21
-91.75
0
LINE
8
0
10
127.25
20
-91.75
11
127.25
21
-108.25
0
LINE
8
0
10
127.25
20
-91.25
11
144.75
21
-91.25
0
LINE
8
0
10
144.75
20
-91.25
11
144.75
21
-74.75
0
LINE
8
0
10
144.75
20
-74.75
11
127.25
21
-74.75
0
LINE
8
0
10
127.25
20
-74.75
11
127.25
21
-91.25
0
LINE
8
0
10
145.25
20
-108.25
11
162.75
21
-108.25
0
LINE
8
0
10
162.75
20
-108.25
11
162.75
21
-91.75
0
LINE
8
0
10
162.75
20
-91.75
11
145.25
21
-91.75
0
LINE
8
0
10
145.25
20
-91.75
11
145.25
21
-108.25
0
LINE
8
0
10
145.25
20
-91.25
11
162.75
21
-91.25
0
LINE
8
0
10
162.75
20
-91.25
11
162.75
21
-74.75
0
LINE
8
0
10
162.75
20
-74.75
11
145.25
21
-74.75
0
LINE
8
0
10
145.25
20
-74.75
11
145.25
21
-91.25
0
LINE
8
0
10
163.25
20
-108.25
11
180.75
21
-108.25
0
LINE
8
0
10
180.75
20
-108.25
11
180.75
21
-91.75
0
LINE
8
0
10
180.75
20
-91.75
11
163.25
21
-91.75
0
LINE
8
0
10
163.25
20
-91.75
11
163.25
21
-108.25
0
LINE
8
0
10
163.25
20
-91.25
11
180.75
21
-91.25
0
LINE
8
0
10
180.75
20
-91.25
11
180.75
21
-74.75
0
LINE
8
0
10
180.75
20
-74.75
11
163.25
21
-74.75
0
LINE
8
0
10
163.25
20
-74.75
11
163.25
21
-91.25
0
LINE
8
0
10
181.25
20
-108.25
11
198.75
21
-108.25
0
LINE
8
0
10
198.75
20
-108.25
11
198.75
21
-91.75
0
LINE
8
0
10
198.75
20
-91.75
11
181.25
21
-91.75
0
LINE
8
0
10
181.25
20
-91.75
11
181.25
21
-108.25
0
LINE
8
0
10
181.25
20
-91.25
11
198.75
21
-91.25
0
LINE
8
0
10
198.75
20
-91.25
11
198.75
21
-74.75
0
LINE
8
0
10
198.75
20
-74.75
11
181.25
21
-74.75
0
LINE
8
0
10
181.25
20
-74.75
11
181.25
21
-91.25
0
LINE
8
0
10
199.25
20
-108.25
11
216.75
21
-108.25
0
LINE
8
0
10
216.75
20
-108.25
11
216.75
21
-91.75
0
LINE
8
0
10
216.75
20
-91.75
11
199.25
21
-91.75
0
LINE
8
0
10
199.25
20
-91.75
11
199.25
21
-108.25
0
LINE
8
0
10
199.25
20
-91.25
11
216.75
21
-91.25
0
LINE
8
0
10
216.75
20
-91.25
11
216.75
21
-74.75
0
LINE
8
0
10
216.75
20
-74.75
11
199.25
21
-74.75
0
LINE
8
0
10
199.25
20
-74.75
11
199.25
21
-91.25
0
LINE
8
0
10
217.25
20
-108.25
11
234.75
21
-108.25
0
LINE
8
0
10
234.75
20
-108.25
11
234.75
21
-91.75
0
LINE
8
0
10
234.75
20
-91.75
11
217.25
21
-91.75
0
LINE
8
0
10
217.25
20
-91.75
11
217.25
21
-108.25
0
LINE
8
0
10
217.25
20
-91.25
11
234.75
21
-91.25
0
LINE
8
0
10
234.75
20
-91.25
11
234.75
21
-74.75
0
LINE
8
0
10
234.75
20
-74.75
11
217.25
21
-74.75
0
LINE
8
0
10
217.25
20
-74.75
11
217.25
21
-91.25
0
LINE
8
0
10
91.25
20
-125.25
11
108.75
21
-125.25
0
LINE
8
0
10
108.75
20
-125.25
11
108.75
21
-108.75
0
LINE
8
0
10
108.75
20
-108.75
11
91.25
21
-108.75
0
LINE
8
0
10
91.25
20
-108.75
11
91.25
21
-125.25
0
LINE
8
0
10
109.25
20
-125.25
11
126.75
21
-125.25
0
LINE
8
0
10
126.75
20
-125.25
11
126.75
21
-108.75
0
LINE
8
0
10
126.75
20
-108.75
11
109.25
21
-108.75
0
LINE
8
0
10
109.25
20
-108.75
11
109.25
21
-125.25
0
LINE
8
0
10
127.25
20
-125.25
11
144.75
21
-125.25
0
LINE
8
0
10
144.75
20
-125.25
11
144.75
21
-108.75
0
LINE
8
0
10
144.75
20
-108.75
11
127.25
21
-108.75
0
LINE
8
0
10
127.25
20
-108.75
11
127.25
21
-125.25
0
LINE
8
0
10
145.25
20
-125.25
11
162.75
21
-125.25
0
LINE
8
0
10
162.75
20
-125.25
11
162.75
21
-108.75
0
LINE
8
0
10
162.75
20
-108.75
11
145.25
21
-108.75
0
LINE
8
0
10
145.25
20
-108.75
11
145.25
21
-125.25
0
LINE
8
0
10
163.25
20
-125.25
11
180.75
21
-125.25
0
LINE
8
0
10
180.75
20
-125.25
11
180.75
21
-108.75
0
LINE
8
0
10
180.75
20
-108.75
11
163.25
21
-108.75
0
LINE
8
0
10
163.25
20
-108.75
11
163.25
21
-125.25
0
LINE
8
0
10
181.25
20
-125.25
11
198.75
21
-125.25
0
LINE
8
0
10
198.75
20
-125.25
11
198.75
21
-108.75
0
LINE
8
0
10
198.75
20
-108.75
11
181.25
21
-108.75
0
LINE
8
0
10
181.25
20
-108.75
11
181.25
21
-125.25
0
LINE
8
0
10
208.25
20
-125.25
11
225.75
21
-125.25
0
LINE
8
0
10
225.75
20
-125.25
11
225.75
21
-108.75
0
LINE
8
0
10
225.75
20
-108.75
11
208.25
21
-108.75
0
LINE
8
0
10
208.25
20
-108.75
11
208.25
21
-125.25
0
LINE
8
0
10
91.25
20
-142.25
11
108.75
21
-142.25
0
LINE
8
0
10
108.75
20
-142.25
11
108.75
21
-125.75
0
LINE
8
0
10
108.75
20
-125.75
11
91.25
21
-125.75
0
LINE
8
0
10
91.25
20
-125.75
11
91.25
21
-142.25
0
LINE
8
0
10
109.25
20
-142.25
11
126.75
21
-142.25
0
LINE
8
0
10
126.75
20
-142.25
11
126.75
21
-125.75
0
LINE
8
0
10
126.75
20
-125.75
11
109.25
21
-125.75
0
LINE
8
0
10
109.25
20
-125.75
11
109.25
21
-142.25
0
LINE
8
0
10
127.25
20
-142.25
11
144.75
21
-142.25
0
LINE
8
0
10
144.75
20
-142.25
11
144.75
21
-125.75
0
LINE
8
0
10
144.75
20
-125.75
11
127.25
21
-125.75
0
LINE
8
0
10
127.25
20
-125.75
11
127.25
21
-142.25
0
LINE
8
0
10
145.25
20
-142.25
11
162.75
21
-142.25
0
LINE
8
0
10
162.75
20
-142.25
11
162.75
21
-125.75
0
LINE
8
0
10
162.75
20
-125.75
11
145.25
21
-125.75
0
LINE
8
0
10
145.25
20
-125.75
11
145.25
21
-142.25
0
LINE
8
0
10
163.25
20
-142.25
11
180.75
21
-142.25
0
LINE
8
0
10
180.75
20
-142.25
11
180.75
21
-125.75
0
LINE
8
0
10
180.75
20
-125.75
11
163.25
21
-125.75
0
LINE
8
0
10
163.25
20
-125.75
11
163.25
21
-142.25
0
LINE
8
0
10
181.25
20
-142.25
11
198.75
21
-142.25
0
LINE
8
0
10
198.75
20
-142.25
11
198.75
21
-125.75
0
LINE
8
0
10
198.75
20
-125.75
11
181.25
21
-125.75
0
LINE
8
0
10
181.25
20
-125.75
11
181.25
21
-142.25
0
LINE
8
0
10
199.25
20
-142.25
11
216.75
21
-142.25
0
LINE
8
0
10
216.75
20
-142.25
11
216.75
21
-125.75
0
LINE
8
0
10
216.75
20
-125.75
11
199.25
21
-125.75
0
LINE
8
0
10
199.25
20
-125.75
11
199.25
21
-142.25
0
LINE
8
0
10
217.25
20
-142.25
11
234.75
21
-142.25
0
LINE
8
0
10
234.75
20
-142.25
11
234.75
21
-125.75
0
LINE
8
0
10
234.75
20
-125.75
11
217.25
21
-125.75
0
LINE
8
0
10
217.25
20
-125.75
11
217.25
21
-142.25
0
LINE
8
0
10
93.5
20
-159.25
11
111
21
-159.25
0
LINE
8
0
10
111
20
-159.25
11
111
21
-142.75
0
LINE
8
0
10
111
20
-142.75
11
93.5
21
-142.75
0
LINE
8
0
10
93.5
20
-142.75
11
93.5
21
-159.25
0
LINE
8
0
10
116
20
-159.25
11
133.5
21
-159.25
0
LINE
8
0
10
133.5
20
-159.25
11
133.5
21
-142.75
0
LINE
8
0
10
133.5
20
-142.75
11
116
21
-142.75
0
LINE
8
0
10
116
20
-142.75
11
116
21
-159.25
0
LINE
8
0
10
138.5
20
-159.25
11
156
21
-159.25
0
LINE
8
0
10
156
20
-159.25
11
156
21
-142.75
0
LINE
8
0
10
156
20
-142.75
11
138.5
21
-142.75
0
LINE
8
0
10
138.5
20
-142.75
11
138.5
21
-159.25
0
LINE
8
0
10
161
20
-159.25
11
178.5
21
-159.25
0
LINE
8
0
10
178.5
20
-159.25
11
178.5
21
-142.75
0
LINE
8
0
10
178.5
20
-142.75
11
161
21
-142.75
0
LINE
8
0
10
161
20
-142.75
11
161
21
-159.25
0
LINE
8
0
10
181.25
20
-159.25
11
198.75
21
-159.25
0
LINE
8
0
10
198.75
20
-159.25
11
198.75
21
-142.75
0
LINE
8
0
10
198.75
20
-142.75
11
181.25
21
-142.75
0
LINE
8
0
10
181.25
20
-142.75
11
181.25
21
-159.25
0
LINE
8
0
10
199.25
20
-159.25
11
216.75
21
-159.25
0
LINE
8
0
10
216.75
20
-159.25
11
216.75
21
-142.75
0
LINE
8
0
10
216.75
20
-142.75
11
199.25
21
-142.75
0
LINE
8
0
10
199.25
20
-142.75
11
199.25
21
-159.25
0
LINE
8
0
10
217.25
20
-159.25
11
234.75
21
-159.25
0
LINE
8
0
10
234.75
20
-159.25
11
234.75
21
-142.75
0
LINE
8
0
10
234.75
20
-142.75
11
217.25
21
-142.75
0
LINE
8
0
10
217.25
20
-142.75
11
217.25
21
-159.25
0
ENDSEC
0
EOF