0
SECTION
2
HEADER
9
$INSUNITS
70
4
0
ENDSEC
0
SECTION
2
TABLES
0
TABLE
2
LTYPE
0
LTYPE
72
65
70
64
2
CONTINUOUS
3
______
73
0
40
0
0
ENDTAB
0
TABLE
2
LAYER
0
ENDTAB
0
ENDSEC
0
SECTION
2
ENTITIES
0
LINE
8
0
10
91
20
-142.5
11
91
21
-74.5
0
LINE
8
0
10
91
20
-74.5
11
235
21
-74.5
0
LINE
8
0
10
199
20
-108.5
11
208
21
-108.5
0
LINE
8
0
10
226
20
-108.5
11
235
21
-108.5
0
LINE
8
0
10
235
20
-108.5
11
235
21
-74.5
0
LINE
8
0
10
199
20
-125.5
11
199
21
-108.5
0
LINE
8
0
10
226
20
-125.5
11
226
21
-108.5
0
LINE
8
0
10
208
20
-108.5
11
208
21
-125.5
0
LINE
8
0
10
91
20
-142.5
11
93.25
21
-142.5
0
LINE
8
0
10
111.25
20
-142.5
11
115.75
21
-142.5
0
LINE
8
0
10
133.75
20
-142.5
11
138.25
21
-142.5
0
LINE
8
0
10
156.25
20
-142.5
11
160.75
21
-142.5
0
LINE
8
0
10
178.75
20
-142.5
11
181
21
-142.5
0
LINE
8
0
10
208
20
-125.5
11
199
21
-125.5
0
LINE
8
0
10
235
20
-159.5
11
235
21
-125.5
0
LINE
8
0
10
235
20
-125.5
11
226
21
-125.5
0
LINE
8
0
10
93.25
20
-159.5
11
111.25
21
-159.5
0
LINE
8
0
10
111.25
20
-159.5
11
111.25
21
-142.5
0
LINE
8
0
10
93.25
20
-142.5
11
93.25
21
-159.5
0
LINE
8
0
10
115.75
20
-159.5
11
133.75
21
-159.5
0
LINE
8
0
10
133.75
20
-159.5
11
133.75
21
-142.5
0
LINE
8
0
10
115.75
20
-142.5
11
115.75
21
-159.5
0
LINE
8
0
10
138.25
20
-159.5
11
156.25
21
-159.5
0
LINE
8
0
10
156.25
20
-159.5
11
156.25
21
-142.5
0
LINE
8
0
10
138.25
20
-142.5
11
138.25
21
-159.5
0
LINE
8
0
10
160.75
20
-159.5
11
178.75
21
-159.5
0
LINE
8
0
10
178.75
20
-159.5
11
178.75
21
-142.5
0
LINE
8
0
10
160.75
20
-142.5
11
160.75
21
-159.5
0
LINE
8
0
10
181
20
-159.5
11
235
21
-159.5
0
LINE
8
0
10
181
20
-142.5
11
181
21
-159.5
0
ENDSEC
0
EOF