0
SECTION
2
HEADER
9
$INSUNITS
70
4
0
ENDSEC
0
SECTION
2
TABLES
0
TABLE
2
LTYPE
0
LTYPE
72
65
70
64
2
CONTINUOUS
3
______
73
0
40
0
0
ENDTAB
0
TABLE
2
LAYER
0
ENDTAB
0
ENDSEC
0
SECTION
2
ENTITIES
0
LINE
8
0
10
91
20
-108.5
11
109
21
-108.5
0
LINE
8
0
10
109
20
-108.5
11
109
21
-91.5
0
LINE
8
0
10
109
20
-91.5
11
91
21
-91.5
0
LINE
8
0
10
91
20
-91.5
11
91
21
-108.5
0
LINE
8
0
10
91
20
-89.45
11
109
21
-89.45
0
LINE
8
0
10
109
20
-89.45
11
109
21
-72.45
0
LINE
8
0
10
109
20
-72.45
11
91
21
-72.45
0
LINE
8
0
10
91
20
-72.45
11
91
21
-89.45
0
LINE
8
0
10
110.05
20
-108.5
11
128.05
21
-108.5
0
LINE
8
0
10
128.05
20
-108.5
11
128.05
21
-91.5
0
LINE
8
0
10
128.05
20
-91.5
11
110.05
21
-91.5
0
LINE
8
0
10
110.05
20
-91.5
11
110.05
21
-108.5
0
LINE
8
0
10
110.05
20
-89.45
11
128.05
21
-89.45
0
LINE
8
0
10
128.05
20
-89.45
11
128.05
21
-72.45
0
LINE
8
0
10
128.05
20
-72.45
11
110.05
21
-72.45
0
LINE
8
0
10
110.05
20
-72.45
11
110.05
21
-89.45
0
LINE
8
0
10
129.1
20
-108.5
11
147.1
21
-108.5
0
LINE
8
0
10
147.1
20
-108.5
11
147.1
21
-91.5
0
LINE
8
0
10
147.1
20
-91.5
11
129.1
21
-91.5
0
LINE
8
0
10
129.1
20
-91.5
11
129.1
21
-108.5
0
LINE
8
0
10
129.1
20
-89.45
11
147.1
21
-89.45
0
LINE
8
0
10
147.1
20
-89.45
11
147.1
21
-72.45
0
LINE
8
0
10
147.1
20
-72.45
11
129.1
21
-72.45
0
LINE
8
0
10
129.1
20
-72.45
11
129.1
21
-89.45
0
LINE
8
0
10
148.15
20
-108.5
11
166.15
21
-108.5
0
LINE
8
0
10
166.15
20
-108.5
11
166.15
21
-91.5
0
LINE
8
0
10
166.15
20
-91.5
11
148.15
21
-91.5
0
LINE
8
0
10
148.15
20
-91.5
11
148.15
21
-108.5
0
LINE
8
0
10
148.15
20
-89.45
11
166.15
21
-89.45
0
LINE
8
0
10
166.15
20
-89.45
11
166.15
21
-72.45
0
LINE
8
0
10
166.15
20
-72.45
11
148.15
21
-72.45
0
LINE
8
0
10
148.15
20
-72.45
11
148.15
21
-89.45
0
LINE
8
0
10
167.2
20
-108.5
11
185.2
21
-108.5
0
LINE
8
0
10
185.2
20
-108.5
11
185.2
21
-91.5
0
LINE
8
0
10
185.2
20
-91.5
11
167.2
21
-91.5
0
LINE
8
0
10
167.2
20
-91.5
11
167.2
21
-108.5
0
LINE
8
0
10
167.2
20
-89.45
11
185.2
21
-89.45
0
LINE
8
0
10
185.2
20
-89.45
11
185.2
21
-72.45
0
LINE
8
0
10
185.2
20
-72.45
11
167.2
21
-72.45
0
LINE
8
0
10
167.2
20
-72.45
11
167.2
21
-89.45
0
LINE
8
0
10
186.25
20
-108.5
11
204.25
21
-108.5
0
LINE
8
0
10
204.25
20
-108.5
11
204.25
21
-91.5
0
LINE
8
0
10
204.25
20
-91.5
11
186.25
21
-91.5
0
LINE
8
0
10
186.25
20
-91.5
11
186.25
21
-108.5
0
LINE
8
0
10
186.25
20
-89.45
11
204.25
21
-89.45
0
LINE
8
0
10
204.25
20
-89.45
11
204.25
21
-72.45
0
LINE
8
0
10
204.25
20
-72.45
11
186.25
21
-72.45
0
LINE
8
0
10
186.25
20
-72.45
11
186.25
21
-89.45
0
LINE
8
0
10
205.3
20
-108.5
11
223.3
21
-108.5
0
LINE
8
0
10
223.3
20
-108.5
11
223.3
21
-91.5
0
LINE
8
0
10
223.3
20
-91.5
11
205.3
21
-91.5
0
LINE
8
0
10
205.3
20
-91.5
11
205.3
21
-108.5
0
LINE
8
0
10
205.3
20
-89.45
11
223.3
21
-89.45
0
LINE
8
0
10
223.3
20
-89.45
11
223.3
21
-72.45
0
LINE
8
0
10
223.3
20
-72.45
11
205.3
21
-72.45
0
LINE
8
0
10
205.3
20
-72.45
11
205.3
21
-89.45
0
LINE
8
0
10
224.35
20
-108.5
11
242.35
21
-108.5
0
LINE
8
0
10
242.35
20
-108.5
11
242.35
21
-91.5
0
LINE
8
0
10
242.35
20
-91.5
11
224.35
21
-91.5
0
LINE
8
0
10
224.35
20
-91.5
11
224.35
21
-108.5
0
LINE
8
0
10
224.35
20
-89.45
11
242.35
21
-89.45
0
LINE
8
0
10
242.35
20
-89.45
11
242.35
21
-72.45
0
LINE
8
0
10
242.35
20
-72.45
11
224.35
21
-72.45
0
LINE
8
0
10
224.35
20
-72.45
11
224.35
21
-89.45
0
LINE
8
0
10
91
20
-127.55
11
109
21
-127.55
0
LINE
8
0
10
109
20
-127.55
11
109
21
-110.55
0
LINE
8
0
10
109
20
-110.55
11
91
21
-110.55
0
LINE
8
0
10
91
20
-110.55
11
91
21
-127.55
0
LINE
8
0
10
110.05
20
-127.55
11
128.05
21
-127.55
0
LINE
8
0
10
128.05
20
-127.55
11
128.05
21
-110.55
0
LINE
8
0
10
128.05
20
-110.55
11
110.05
21
-110.55
0
LINE
8
0
10
110.05
20
-110.55
11
110.05
21
-127.55
0
LINE
8
0
10
129.1
20
-127.55
11
147.1
21
-127.55
0
LINE
8
0
10
147.1
20
-127.55
11
147.1
21
-110.55
0
LINE
8
0
10
147.1
20
-110.55
11
129.1
21
-110.55
0
LINE
8
0
10
129.1
20
-110.55
11
129.1
21
-127.55
0
LINE
8
0
10
148.15
20
-127.55
11
166.15
21
-127.55
0
LINE
8
0
10
166.15
20
-127.55
11
166.15
21
-110.55
0
LINE
8
0
10
166.15
20
-110.55
11
148.15
21
-110.55
0
LINE
8
0
10
148.15
20
-110.55
11
148.15
21
-127.55
0
LINE
8
0
10
167.2
20
-127.55
11
185.2
21
-127.55
0
LINE
8
0
10
185.2
20
-127.55
11
185.2
21
-110.55
0
LINE
8
0
10
185.2
20
-110.55
11
167.2
21
-110.55
0
LINE
8
0
10
167.2
20
-110.55
11
167.2
21
-127.55
0
LINE
8
0
10
186.25
20
-127.55
11
204.25
21
-127.55
0
LINE
8
0
10
204.25
20
-127.55
11
204.25
21
-110.55
0
LINE
8
0
10
204.25
20
-110.55
11
186.25
21
-110.55
0
LINE
8
0
10
186.25
20
-110.55
11
186.25
21
-127.55
0
LINE
8
0
10
214.825
20
-127.55
11
232.825
21
-127.55
0
LINE
8
0
10
232.825
20
-127.55
11
232.825
21
-110.55
0
LINE
8
0
10
232.825
20
-110.55
11
214.825
21
-110.55
0
LINE
8
0
10
214.825
20
-110.55
11
214.825
21
-127.55
0
LINE
8
0
10
91
20
-146.6
11
109
21
-146.6
0
LINE
8
0
10
109
20
-146.6
11
109
21
-129.6
0
LINE
8
0
10
109
20
-129.6
11
91
21
-129.6
0
LINE
8
0
10
91
20
-129.6
11
91
21
-146.6
0
LINE
8
0
10
110.05
20
-146.6
11
128.05
21
-146.6
0
LINE
8
0
10
128.05
20
-146.6
11
128.05
21
-129.6
0
LINE
8
0
10
128.05
20
-129.6
11
110.05
21
-129.6
0
LINE
8
0
10
110.05
20
-129.6
11
110.05
21
-146.6
0
LINE
8
0
10
129.1
20
-146.6
11
147.1
21
-146.6
0
LINE
8
0
10
147.1
20
-146.6
11
147.1
21
-129.6
0
LINE
8
0
10
147.1
20
-129.6
11
129.1
21
-129.6
0
LINE
8
0
10
129.1
20
-129.6
11
129.1
21
-146.6
0
LINE
8
0
10
148.15
20
-146.6
11
166.15
21
-146.6
0
LINE
8
0
10
166.15
20
-146.6
11
166.15
21
-129.6
0
LINE
8
0
10
166.15
20
-129.6
11
148.15
21
-129.6
0
LINE
8
0
10
148.15
20
-129.6
11
148.15
21
-146.6
0
LINE
8
0
10
167.2
20
-146.6
11
185.2
21
-146.6
0
LINE
8
0
10
185.2
20
-146.6
11
185.2
21
-129.6
0
LINE
8
0
10
185.2
20
-129.6
11
167.2
21
-129.6
0
LINE
8
0
10
167.2
20
-129.6
11
167.2
21
-146.6
0
LINE
8
0
10
186.25
20
-146.6
11
204.25
21
-146.6
0
LINE
8
0
10
204.25
20
-146.6
11
204.25
21
-129.6
0
LINE
8
0
10
204.25
20
-129.6
11
186.25
21
-129.6
0
LINE
8
0
10
186.25
20
-129.6
11
186.25
21
-146.6
0
LINE
8
0
10
205.3
20
-146.6
11
223.3
21
-146.6
0
LINE
8
0
10
223.3
20
-146.6
11
223.3
21
-129.6
0
LINE
8
0
10
223.3
20
-129.6
11
205.3
21
-129.6
0
LINE
8
0
10
205.3
20
-129.6
11
205.3
21
-146.6
0
LINE
8
0
10
224.35
20
-146.6
11
242.35
21
-146.6
0
LINE
8
0
10
242.35
20
-146.6
11
242.35
21
-129.6
0
LINE
8
0
10
242.35
20
-129.6
11
224.35
21
-129.6
0
LINE
8
0
10
224.35
20
-129.6
11
224.35
21
-146.6
0
LINE
8
0
10
93.38125
20
-165.65
11
111.38125
21
-165.65
0
LINE
8
0
10
111.38125
20
-165.65
11
111.38125
21
-148.65
0
LINE
8
0
10
111.38125
20
-148.65
11
93.38125
21
-148.65
0
LINE
8
0
10
93.38125
20
-148.65
11
93.38125
21
-165.65
0
LINE
8
0
10
117.19375
20
-165.65
11
135.19375
21
-165.65
0
LINE
8
0
10
135.19375
20
-165.65
11
135.19375
21
-148.65
0
LINE
8
0
10
135.19375
20
-148.65
11
117.19375
21
-148.65
0
LINE
8
0
10
117.19375
20
-148.65
11
117.19375
21
-165.65
0
LINE
8
0
10
141.00625
20
-165.65
11
159.00625
21
-165.65
0
LINE
8
0
10
159.00625
20
-165.65
11
159.00625
21
-148.65
0
LINE
8
0
10
159.00625
20
-148.65
11
141.00625
21
-148.65
0
LINE
8
0
10
141.00625
20
-148.65
11
141.00625
21
-165.65
0
LINE
8
0
10
164.81875
20
-165.65
11
182.81875
21
-165.65
0
LINE
8
0
10
182.81875
20
-165.65
11
182.81875
21
-148.65
0
LINE
8
0
10
182.81875
20
-148.65
11
164.81875
21
-148.65
0
LINE
8
0
10
164.81875
20
-148.65
11
164.81875
21
-165.65
0
LINE
8
0
10
186.25
20
-165.65
11
204.25
21
-165.65
0
LINE
8
0
10
204.25
20
-165.65
11
204.25
21
-148.65
0
LINE
8
0
10
204.25
20
-148.65
11
186.25
21
-148.65
0
LINE
8
0
10
186.25
20
-148.65
11
186.25
21
-165.65
0
LINE
8
0
10
205.3
20
-165.65
11
223.3
21
-165.65
0
LINE
8
0
10
223.3
20
-165.65
11
223.3
21
-148.65
0
LINE
8
0
10
223.3
20
-148.65
11
205.3
21
-148.65
0
LINE
8
0
10
205.3
20
-148.65
11
205.3
21
-165.65
0
LINE
8
0
10
224.35
20
-165.65
11
242.35
21
-165.65
0
LINE
8
0
10
242.35
20
-165.65
11
242.35
21
-148.65
0
LINE
8
0
10
242.35
20
-148.65
11
224.35
21
-148.65
0
LINE
8
0
10
224.35
20
-148.65
11
224.35
21
-165.65
0
ENDSEC
0
EOF