0
SECTION
2
HEADER
9
$INSUNITS
70
4
0
ENDSEC
0
SECTION
2
TABLES
0
TABLE
2
LTYPE
0
LTYPE
72
65
70
0
2
CONTINUOUS
3
______
73
0
40
0
0
LTYPE
72
65
70
0
2
DASHED
3
_ _ _ 
73
2
40
7.5
49
5
49
-2.5
0
LTYPE
72
65
70
0
2
DOTTED
3
. . . 
73
2
40
1.5
49
0.5
49
-1
0
ENDTAB
0
TABLE
2
LAYER
0
ENDTAB
0
ENDSEC
0
SECTION
2
ENTITIES
0
LINE
8
0
6
CONTINUOUS
10
194.2665
20
-127.05
11
201.2665
21
-127.05
0
LINE
8
0
6
CONTINUOUS
10
201.2665
20
-127.05
11
201.2665
21
-113.05
0
LINE
8
0
6
CONTINUOUS
10
201.2665
20
-113.05
11
194.2665
21
-113.05
0
LINE
8
0
6
CONTINUOUS
10
194.2665
20
-113.05
11
194.2665
21
-127.05
0
LINE
8
0
6
CONTINUOUS
10
165.4165
20
-127.05
11
172.4165
21
-127.05
0
LINE
8
0
6
CONTINUOUS
10
172.4165
20
-127.05
11
172.4165
21
-113.05
0
LINE
8
0
6
CONTINUOUS
10
172.4165
20
-113.05
11
165.4165
21
-113.05
0
LINE
8
0
6
CONTINUOUS
10
165.4165
20
-113.05
11
165.4165
21
-127.05
0
ENDSEC
0
EOF