0
SECTION
2
HEADER
9
$INSUNITS
70
4
0
ENDSEC
0
SECTION
2
TABLES
0
TABLE
2
LTYPE
0
LTYPE
72
65
70
0
2
CONTINUOUS
3
______
73
0
40
0
0
LTYPE
72
65
70
0
2
DASHED
3
_ _ _ 
73
2
40
7.5
49
5
49
-2.5
0
LTYPE
72
65
70
0
2
DOTTED
3
. . . 
73
2
40
1.5
49
0.5
49
-1
0
ENDTAB
0
TABLE
2
LAYER
0
ENDTAB
0
ENDSEC
0
SECTION
2
ENTITIES
0
LINE
8
0
6
CONTINUOUS
10
61.1385496
20
-129.6427268
11
61.4927533
21
-32.2427268
0
LINE
8
0
6
CONTINUOUS
10
63.4927401
20
-30.25
11
204.25
21
-30.25
0
LINE
8
0
6
CONTINUOUS
10
206.25
20
-32.25
11
206.25
21
-129.65
0
LINE
8
0
6
CONTINUOUS
10
204.25
20
-131.65
11
63.1385364
21
-131.65
0
ARC
8
0
6
CONTINUOUS
10
63.4927401
20
-32.25
40
2
50
90
51
179.7916377
0
ARC
8
0
6
CONTINUOUS
10
204.25
20
-32.25
40
2
50
0
51
90
0
ARC
8
0
6
CONTINUOUS
10
204.25
20
-129.65
40
2
50
270
51
0
0
ARC
8
0
6
CONTINUOUS
10
63.1385364
20
-129.65
40
2
50
179.7916377
51
270
0
ENDSEC
0
EOF