0
SECTION
2
HEADER
9
$INSUNITS
70
4
0
ENDSEC
0
SECTION
2
TABLES
0
TABLE
2
LTYPE
0
LTYPE
72
65
70
0
2
CONTINUOUS
3
______
73
0
40
0
0
LTYPE
72
65
70
0
2
DASHED
3
_ _ _ 
73
2
40
7.5
49
5
49
-2.5
0
LTYPE
72
65
70
0
2
DOTTED
3
. . . 
73
2
40
1.5
49
0.5
49
-1
0
ENDTAB
0
TABLE
2
LAYER
0
ENDTAB
0
ENDSEC
0
SECTION
2
ENTITIES
0
LINE
8
0
6
CONTINUOUS
10
91
20
-108.5
11
109
21
-108.5
0
LINE
8
0
6
CONTINUOUS
10
109
20
-108.5
11
109
21
-91.5
0
LINE
8
0
6
CONTINUOUS
10
109
20
-91.5
11
91
21
-91.5
0
LINE
8
0
6
CONTINUOUS
10
91
20
-91.5
11
91
21
-108.5
0
LINE
8
0
6
CONTINUOUS
10
91
20
-89.45
11
109
21
-89.45
0
LINE
8
0
6
CONTINUOUS
10
109
20
-89.45
11
109
21
-72.45
0
LINE
8
0
6
CONTINUOUS
10
109
20
-72.45
11
91
21
-72.45
0
LINE
8
0
6
CONTINUOUS
10
91
20
-72.45
11
91
21
-89.45
0
LINE
8
0
6
CONTINUOUS
10
91
20
-70.4
11
109
21
-70.4
0
LINE
8
0
6
CONTINUOUS
10
109
20
-70.4
11
109
21
-53.4
0
LINE
8
0
6
CONTINUOUS
10
109
20
-53.4
11
91
21
-53.4
0
LINE
8
0
6
CONTINUOUS
10
91
20
-53.4
11
91
21
-70.4
0
LINE
8
0
6
CONTINUOUS
10
91
20
-51.35
11
109
21
-51.35
0
LINE
8
0
6
CONTINUOUS
10
109
20
-51.35
11
109
21
-34.35
0
LINE
8
0
6
CONTINUOUS
10
109
20
-34.35
11
91
21
-34.35
0
LINE
8
0
6
CONTINUOUS
10
91
20
-34.35
11
91
21
-51.35
0
LINE
8
0
6
CONTINUOUS
10
110.05
20
-108.5
11
128.05
21
-108.5
0
LINE
8
0
6
CONTINUOUS
10
128.05
20
-108.5
11
128.05
21
-91.5
0
LINE
8
0
6
CONTINUOUS
10
128.05
20
-91.5
11
110.05
21
-91.5
0
LINE
8
0
6
CONTINUOUS
10
110.05
20
-91.5
11
110.05
21
-108.5
0
LINE
8
0
6
CONTINUOUS
10
110.05
20
-89.45
11
128.05
21
-89.45
0
LINE
8
0
6
CONTINUOUS
10
128.05
20
-89.45
11
128.05
21
-72.45
0
LINE
8
0
6
CONTINUOUS
10
128.05
20
-72.45
11
110.05
21
-72.45
0
LINE
8
0
6
CONTINUOUS
10
110.05
20
-72.45
11
110.05
21
-89.45
0
LINE
8
0
6
CONTINUOUS
10
110.05
20
-70.4
11
128.05
21
-70.4
0
LINE
8
0
6
CONTINUOUS
10
128.05
20
-70.4
11
128.05
21
-53.4
0
LINE
8
0
6
CONTINUOUS
10
128.05
20
-53.4
11
110.05
21
-53.4
0
LINE
8
0
6
CONTINUOUS
10
110.05
20
-53.4
11
110.05
21
-70.4
0
LINE
8
0
6
CONTINUOUS
10
110.05
20
-51.35
11
128.05
21
-51.35
0
LINE
8
0
6
CONTINUOUS
10
128.05
20
-51.35
11
128.05
21
-34.35
0
LINE
8
0
6
CONTINUOUS
10
128.05
20
-34.35
11
110.05
21
-34.35
0
LINE
8
0
6
CONTINUOUS
10
110.05
20
-34.35
11
110.05
21
-51.35
0
LINE
8
0
6
CONTINUOUS
10
129.1
20
-108.5
11
147.1
21
-108.5
0
LINE
8
0
6
CONTINUOUS
10
147.1
20
-108.5
11
147.1
21
-91.5
0
LINE
8
0
6
CONTINUOUS
10
147.1
20
-91.5
11
129.1
21
-91.5
0
LINE
8
0
6
CONTINUOUS
10
129.1
20
-91.5
11
129.1
21
-108.5
0
LINE
8
0
6
CONTINUOUS
10
129.1
20
-89.45
11
147.1
21
-89.45
0
LINE
8
0
6
CONTINUOUS
10
147.1
20
-89.45
11
147.1
21
-72.45
0
LINE
8
0
6
CONTINUOUS
10
147.1
20
-72.45
11
129.1
21
-72.45
0
LINE
8
0
6
CONTINUOUS
10
129.1
20
-72.45
11
129.1
21
-89.45
0
LINE
8
0
6
CONTINUOUS
10
129.1
20
-70.4
11
147.1
21
-70.4
0
LINE
8
0
6
CONTINUOUS
10
147.1
20
-70.4
11
147.1
21
-53.4
0
LINE
8
0
6
CONTINUOUS
10
147.1
20
-53.4
11
129.1
21
-53.4
0
LINE
8
0
6
CONTINUOUS
10
129.1
20
-53.4
11
129.1
21
-70.4
0
LINE
8
0
6
CONTINUOUS
10
129.1
20
-51.35
11
147.1
21
-51.35
0
LINE
8
0
6
CONTINUOUS
10
147.1
20
-51.35
11
147.1
21
-34.35
0
LINE
8
0
6
CONTINUOUS
10
147.1
20
-34.35
11
129.1
21
-34.35
0
LINE
8
0
6
CONTINUOUS
10
129.1
20
-34.35
11
129.1
21
-51.35
0
LINE
8
0
6
CONTINUOUS
10
148.15
20
-108.5
11
166.15
21
-108.5
0
LINE
8
0
6
CONTINUOUS
10
166.15
20
-108.5
11
166.15
21
-91.5
0
LINE
8
0
6
CONTINUOUS
10
166.15
20
-91.5
11
148.15
21
-91.5
0
LINE
8
0
6
CONTINUOUS
10
148.15
20
-91.5
11
148.15
21
-108.5
0
LINE
8
0
6
CONTINUOUS
10
148.15
20
-89.45
11
166.15
21
-89.45
0
LINE
8
0
6
CONTINUOUS
10
166.15
20
-89.45
11
166.15
21
-72.45
0
LINE
8
0
6
CONTINUOUS
10
166.15
20
-72.45
11
148.15
21
-72.45
0
LINE
8
0
6
CONTINUOUS
10
148.15
20
-72.45
11
148.15
21
-89.45
0
LINE
8
0
6
CONTINUOUS
10
148.15
20
-70.4
11
166.15
21
-70.4
0
LINE
8
0
6
CONTINUOUS
10
166.15
20
-70.4
11
166.15
21
-53.4
0
LINE
8
0
6
CONTINUOUS
10
166.15
20
-53.4
11
148.15
21
-53.4
0
LINE
8
0
6
CONTINUOUS
10
148.15
20
-53.4
11
148.15
21
-70.4
0
LINE
8
0
6
CONTINUOUS
10
148.15
20
-51.35
11
166.15
21
-51.35
0
LINE
8
0
6
CONTINUOUS
10
166.15
20
-51.35
11
166.15
21
-34.35
0
LINE
8
0
6
CONTINUOUS
10
166.15
20
-34.35
11
148.15
21
-34.35
0
LINE
8
0
6
CONTINUOUS
10
148.15
20
-34.35
11
148.15
21
-51.35
0
LINE
8
0
6
CONTINUOUS
10
167.2
20
-108.5
11
185.2
21
-108.5
0
LINE
8
0
6
CONTINUOUS
10
185.2
20
-108.5
11
185.2
21
-91.5
0
LINE
8
0
6
CONTINUOUS
10
185.2
20
-91.5
11
167.2
21
-91.5
0
LINE
8
0
6
CONTINUOUS
10
167.2
20
-91.5
11
167.2
21
-108.5
0
LINE
8
0
6
CONTINUOUS
10
167.2
20
-89.45
11
185.2
21
-89.45
0
LINE
8
0
6
CONTINUOUS
10
185.2
20
-89.45
11
185.2
21
-72.45
0
LINE
8
0
6
CONTINUOUS
10
185.2
20
-72.45
11
167.2
21
-72.45
0
LINE
8
0
6
CONTINUOUS
10
167.2
20
-72.45
11
167.2
21
-89.45
0
LINE
8
0
6
CONTINUOUS
10
167.2
20
-70.4
11
185.2
21
-70.4
0
LINE
8
0
6
CONTINUOUS
10
185.2
20
-70.4
11
185.2
21
-53.4
0
LINE
8
0
6
CONTINUOUS
10
185.2
20
-53.4
11
167.2
21
-53.4
0
LINE
8
0
6
CONTINUOUS
10
167.2
20
-53.4
11
167.2
21
-70.4
0
LINE
8
0
6
CONTINUOUS
10
167.2
20
-51.35
11
185.2
21
-51.35
0
LINE
8
0
6
CONTINUOUS
10
185.2
20
-51.35
11
185.2
21
-34.35
0
LINE
8
0
6
CONTINUOUS
10
185.2
20
-34.35
11
167.2
21
-34.35
0
LINE
8
0
6
CONTINUOUS
10
167.2
20
-34.35
11
167.2
21
-51.35
0
LINE
8
0
6
CONTINUOUS
10
186.25
20
-108.5
11
204.25
21
-108.5
0
LINE
8
0
6
CONTINUOUS
10
204.25
20
-108.5
11
204.25
21
-91.5
0
LINE
8
0
6
CONTINUOUS
10
204.25
20
-91.5
11
186.25
21
-91.5
0
LINE
8
0
6
CONTINUOUS
10
186.25
20
-91.5
11
186.25
21
-108.5
0
LINE
8
0
6
CONTINUOUS
10
186.25
20
-89.45
11
204.25
21
-89.45
0
LINE
8
0
6
CONTINUOUS
10
204.25
20
-89.45
11
204.25
21
-72.45
0
LINE
8
0
6
CONTINUOUS
10
204.25
20
-72.45
11
186.25
21
-72.45
0
LINE
8
0
6
CONTINUOUS
10
186.25
20
-72.45
11
186.25
21
-89.45
0
LINE
8
0
6
CONTINUOUS
10
186.25
20
-70.4
11
204.25
21
-70.4
0
LINE
8
0
6
CONTINUOUS
10
204.25
20
-70.4
11
204.25
21
-53.4
0
LINE
8
0
6
CONTINUOUS
10
204.25
20
-53.4
11
186.25
21
-53.4
0
LINE
8
0
6
CONTINUOUS
10
186.25
20
-53.4
11
186.25
21
-70.4
0
LINE
8
0
6
CONTINUOUS
10
186.25
20
-51.35
11
204.25
21
-51.35
0
LINE
8
0
6
CONTINUOUS
10
204.25
20
-51.35
11
204.25
21
-34.35
0
LINE
8
0
6
CONTINUOUS
10
204.25
20
-34.35
11
186.25
21
-34.35
0
LINE
8
0
6
CONTINUOUS
10
186.25
20
-34.35
11
186.25
21
-51.35
0
LINE
8
0
6
CONTINUOUS
10
93.38125
20
-127.55
11
111.38125
21
-127.55
0
LINE
8
0
6
CONTINUOUS
10
111.38125
20
-127.55
11
111.38125
21
-110.55
0
LINE
8
0
6
CONTINUOUS
10
111.38125
20
-110.55
11
93.38125
21
-110.55
0
LINE
8
0
6
CONTINUOUS
10
93.38125
20
-110.55
11
93.38125
21
-127.55
0
LINE
8
0
6
CONTINUOUS
10
117.19375
20
-127.55
11
135.19375
21
-127.55
0
LINE
8
0
6
CONTINUOUS
10
135.19375
20
-127.55
11
135.19375
21
-110.55
0
LINE
8
0
6
CONTINUOUS
10
135.19375
20
-110.55
11
117.19375
21
-110.55
0
LINE
8
0
6
CONTINUOUS
10
117.19375
20
-110.55
11
117.19375
21
-127.55
0
LINE
8
0
6
CONTINUOUS
10
141.00625
20
-127.55
11
159.00625
21
-127.55
0
LINE
8
0
6
CONTINUOUS
10
159.00625
20
-127.55
11
159.00625
21
-110.55
0
LINE
8
0
6
CONTINUOUS
10
159.00625
20
-110.55
11
141.00625
21
-110.55
0
LINE
8
0
6
CONTINUOUS
10
141.00625
20
-110.55
11
141.00625
21
-127.55
0
LINE
8
0
6
CONTINUOUS
10
174.3415
20
-127.55
11
192.3415
21
-127.55
0
LINE
8
0
6
CONTINUOUS
10
192.3415
20
-127.55
11
192.3415
21
-110.55
0
LINE
8
0
6
CONTINUOUS
10
192.3415
20
-110.55
11
174.3415
21
-110.55
0
LINE
8
0
6
CONTINUOUS
10
174.3415
20
-110.55
11
174.3415
21
-127.55
0
LINE
8
0
6
CONTINUOUS
10
91
20
-188.5
11
109
21
-188.5
0
LINE
8
0
6
CONTINUOUS
10
109
20
-188.5
11
109
21
-171.5
0
LINE
8
0
6
CONTINUOUS
10
109
20
-171.5
11
91
21
-171.5
0
LINE
8
0
6
CONTINUOUS
10
91
20
-171.5
11
91
21
-188.5
0
LINE
8
0
6
CONTINUOUS
10
91
20
-169.45
11
109
21
-169.45
0
LINE
8
0
6
CONTINUOUS
10
109
20
-169.45
11
109
21
-152.45
0
LINE
8
0
6
CONTINUOUS
10
109
20
-152.45
11
91
21
-152.45
0
LINE
8
0
6
CONTINUOUS
10
91
20
-152.45
11
91
21
-169.45
0
LINE
8
0
6
CONTINUOUS
10
110.05
20
-188.5
11
128.05
21
-188.5
0
LINE
8
0
6
CONTINUOUS
10
128.05
20
-188.5
11
128.05
21
-171.5
0
LINE
8
0
6
CONTINUOUS
10
128.05
20
-171.5
11
110.05
21
-171.5
0
LINE
8
0
6
CONTINUOUS
10
110.05
20
-171.5
11
110.05
21
-188.5
0
LINE
8
0
6
CONTINUOUS
10
110.05
20
-169.45
11
128.05
21
-169.45
0
LINE
8
0
6
CONTINUOUS
10
128.05
20
-169.45
11
128.05
21
-152.45
0
LINE
8
0
6
CONTINUOUS
10
128.05
20
-152.45
11
110.05
21
-152.45
0
LINE
8
0
6
CONTINUOUS
10
110.05
20
-152.45
11
110.05
21
-169.45
0
LINE
8
0
6
CONTINUOUS
10
129.1
20
-188.5
11
147.1
21
-188.5
0
LINE
8
0
6
CONTINUOUS
10
147.1
20
-188.5
11
147.1
21
-171.5
0
LINE
8
0
6
CONTINUOUS
10
147.1
20
-171.5
11
129.1
21
-171.5
0
LINE
8
0
6
CONTINUOUS
10
129.1
20
-171.5
11
129.1
21
-188.5
0
LINE
8
0
6
CONTINUOUS
10
129.1
20
-169.45
11
147.1
21
-169.45
0
LINE
8
0
6
CONTINUOUS
10
147.1
20
-169.45
11
147.1
21
-152.45
0
LINE
8
0
6
CONTINUOUS
10
147.1
20
-152.45
11
129.1
21
-152.45
0
LINE
8
0
6
CONTINUOUS
10
129.1
20
-152.45
11
129.1
21
-169.45
0
LINE
8
0
6
CONTINUOUS
10
148.15
20
-188.5
11
166.15
21
-188.5
0
LINE
8
0
6
CONTINUOUS
10
166.15
20
-188.5
11
166.15
21
-171.5
0
LINE
8
0
6
CONTINUOUS
10
166.15
20
-171.5
11
148.15
21
-171.5
0
LINE
8
0
6
CONTINUOUS
10
148.15
20
-171.5
11
148.15
21
-188.5
0
LINE
8
0
6
CONTINUOUS
10
148.15
20
-169.45
11
166.15
21
-169.45
0
LINE
8
0
6
CONTINUOUS
10
166.15
20
-169.45
11
166.15
21
-152.45
0
LINE
8
0
6
CONTINUOUS
10
166.15
20
-152.45
11
148.15
21
-152.45
0
LINE
8
0
6
CONTINUOUS
10
148.15
20
-152.45
11
148.15
21
-169.45
0
LINE
8
0
6
CONTINUOUS
10
167.2
20
-188.5
11
185.2
21
-188.5
0
LINE
8
0
6
CONTINUOUS
10
185.2
20
-188.5
11
185.2
21
-171.5
0
LINE
8
0
6
CONTINUOUS
10
185.2
20
-171.5
11
167.2
21
-171.5
0
LINE
8
0
6
CONTINUOUS
10
167.2
20
-171.5
11
167.2
21
-188.5
0
LINE
8
0
6
CONTINUOUS
10
167.2
20
-169.45
11
185.2
21
-169.45
0
LINE
8
0
6
CONTINUOUS
10
185.2
20
-169.45
11
185.2
21
-152.45
0
LINE
8
0
6
CONTINUOUS
10
185.2
20
-152.45
11
167.2
21
-152.45
0
LINE
8
0
6
CONTINUOUS
10
167.2
20
-152.45
11
167.2
21
-169.45
0
LINE
8
0
6
CONTINUOUS
10
186.25
20
-188.5
11
204.25
21
-188.5
0
LINE
8
0
6
CONTINUOUS
10
204.25
20
-188.5
11
204.25
21
-171.5
0
LINE
8
0
6
CONTINUOUS
10
204.25
20
-171.5
11
186.25
21
-171.5
0
LINE
8
0
6
CONTINUOUS
10
186.25
20
-171.5
11
186.25
21
-188.5
0
LINE
8
0
6
CONTINUOUS
10
186.25
20
-169.45
11
204.25
21
-169.45
0
LINE
8
0
6
CONTINUOUS
10
204.25
20
-169.45
11
204.25
21
-152.45
0
LINE
8
0
6
CONTINUOUS
10
204.25
20
-152.45
11
186.25
21
-152.45
0
LINE
8
0
6
CONTINUOUS
10
186.25
20
-152.45
11
186.25
21
-169.45
0
LINE
8
0
6
CONTINUOUS
10
205.3
20
-188.5
11
223.3
21
-188.5
0
LINE
8
0
6
CONTINUOUS
10
223.3
20
-188.5
11
223.3
21
-171.5
0
LINE
8
0
6
CONTINUOUS
10
223.3
20
-171.5
11
205.3
21
-171.5
0
LINE
8
0
6
CONTINUOUS
10
205.3
20
-171.5
11
205.3
21
-188.5
0
LINE
8
0
6
CONTINUOUS
10
205.3
20
-169.45
11
223.3
21
-169.45
0
LINE
8
0
6
CONTINUOUS
10
223.3
20
-169.45
11
223.3
21
-152.45
0
LINE
8
0
6
CONTINUOUS
10
223.3
20
-152.45
11
205.3
21
-152.45
0
LINE
8
0
6
CONTINUOUS
10
205.3
20
-152.45
11
205.3
21
-169.45
0
LINE
8
0
6
CONTINUOUS
10
224.35
20
-188.5
11
242.35
21
-188.5
0
LINE
8
0
6
CONTINUOUS
10
242.35
20
-188.5
11
242.35
21
-171.5
0
LINE
8
0
6
CONTINUOUS
10
242.35
20
-171.5
11
224.35
21
-171.5
0
LINE
8
0
6
CONTINUOUS
10
224.35
20
-171.5
11
224.35
21
-188.5
0
LINE
8
0
6
CONTINUOUS
10
224.35
20
-169.45
11
242.35
21
-169.45
0
LINE
8
0
6
CONTINUOUS
10
242.35
20
-169.45
11
242.35
21
-152.45
0
LINE
8
0
6
CONTINUOUS
10
242.35
20
-152.45
11
224.35
21
-152.45
0
LINE
8
0
6
CONTINUOUS
10
224.35
20
-152.45
11
224.35
21
-169.45
0
LINE
8
0
6
CONTINUOUS
10
91
20
-207.55
11
109
21
-207.55
0
LINE
8
0
6
CONTINUOUS
10
109
20
-207.55
11
109
21
-190.55
0
LINE
8
0
6
CONTINUOUS
10
109
20
-190.55
11
91
21
-190.55
0
LINE
8
0
6
CONTINUOUS
10
91
20
-190.55
11
91
21
-207.55
0
LINE
8
0
6
CONTINUOUS
10
110.05
20
-207.55
11
128.05
21
-207.55
0
LINE
8
0
6
CONTINUOUS
10
128.05
20
-207.55
11
128.05
21
-190.55
0
LINE
8
0
6
CONTINUOUS
10
128.05
20
-190.55
11
110.05
21
-190.55
0
LINE
8
0
6
CONTINUOUS
10
110.05
20
-190.55
11
110.05
21
-207.55
0
LINE
8
0
6
CONTINUOUS
10
129.1
20
-207.55
11
147.1
21
-207.55
0
LINE
8
0
6
CONTINUOUS
10
147.1
20
-207.55
11
147.1
21
-190.55
0
LINE
8
0
6
CONTINUOUS
10
147.1
20
-190.55
11
129.1
21
-190.55
0
LINE
8
0
6
CONTINUOUS
10
129.1
20
-190.55
11
129.1
21
-207.55
0
LINE
8
0
6
CONTINUOUS
10
148.15
20
-207.55
11
166.15
21
-207.55
0
LINE
8
0
6
CONTINUOUS
10
166.15
20
-207.55
11
166.15
21
-190.55
0
LINE
8
0
6
CONTINUOUS
10
166.15
20
-190.55
11
148.15
21
-190.55
0
LINE
8
0
6
CONTINUOUS
10
148.15
20
-190.55
11
148.15
21
-207.55
0
LINE
8
0
6
CONTINUOUS
10
167.2
20
-207.55
11
185.2
21
-207.55
0
LINE
8
0
6
CONTINUOUS
10
185.2
20
-207.55
11
185.2
21
-190.55
0
LINE
8
0
6
CONTINUOUS
10
185.2
20
-190.55
11
167.2
21
-190.55
0
LINE
8
0
6
CONTINUOUS
10
167.2
20
-190.55
11
167.2
21
-207.55
0
LINE
8
0
6
CONTINUOUS
10
186.25
20
-207.55
11
204.25
21
-207.55
0
LINE
8
0
6
CONTINUOUS
10
204.25
20
-207.55
11
204.25
21
-190.55
0
LINE
8
0
6
CONTINUOUS
10
204.25
20
-190.55
11
186.25
21
-190.55
0
LINE
8
0
6
CONTINUOUS
10
186.25
20
-190.55
11
186.25
21
-207.55
0
LINE
8
0
6
CONTINUOUS
10
214.825
20
-207.55
11
232.825
21
-207.55
0
LINE
8
0
6
CONTINUOUS
10
232.825
20
-207.55
11
232.825
21
-190.55
0
LINE
8
0
6
CONTINUOUS
10
232.825
20
-190.55
11
214.825
21
-190.55
0
LINE
8
0
6
CONTINUOUS
10
214.825
20
-190.55
11
214.825
21
-207.55
0
LINE
8
0
6
CONTINUOUS
10
91
20
-226.6
11
109
21
-226.6
0
LINE
8
0
6
CONTINUOUS
10
109
20
-226.6
11
109
21
-209.6
0
LINE
8
0
6
CONTINUOUS
10
109
20
-209.6
11
91
21
-209.6
0
LINE
8
0
6
CONTINUOUS
10
91
20
-209.6
11
91
21
-226.6
0
LINE
8
0
6
CONTINUOUS
10
110.05
20
-226.6
11
128.05
21
-226.6
0
LINE
8
0
6
CONTINUOUS
10
128.05
20
-226.6
11
128.05
21
-209.6
0
LINE
8
0
6
CONTINUOUS
10
128.05
20
-209.6
11
110.05
21
-209.6
0
LINE
8
0
6
CONTINUOUS
10
110.05
20
-209.6
11
110.05
21
-226.6
0
LINE
8
0
6
CONTINUOUS
10
129.1
20
-226.6
11
147.1
21
-226.6
0
LINE
8
0
6
CONTINUOUS
10
147.1
20
-226.6
11
147.1
21
-209.6
0
LINE
8
0
6
CONTINUOUS
10
147.1
20
-209.6
11
129.1
21
-209.6
0
LINE
8
0
6
CONTINUOUS
10
129.1
20
-209.6
11
129.1
21
-226.6
0
LINE
8
0
6
CONTINUOUS
10
148.15
20
-226.6
11
166.15
21
-226.6
0
LINE
8
0
6
CONTINUOUS
10
166.15
20
-226.6
11
166.15
21
-209.6
0
LINE
8
0
6
CONTINUOUS
10
166.15
20
-209.6
11
148.15
21
-209.6
0
LINE
8
0
6
CONTINUOUS
10
148.15
20
-209.6
11
148.15
21
-226.6
0
LINE
8
0
6
CONTINUOUS
10
167.2
20
-226.6
11
185.2
21
-226.6
0
LINE
8
0
6
CONTINUOUS
10
185.2
20
-226.6
11
185.2
21
-209.6
0
LINE
8
0
6
CONTINUOUS
10
185.2
20
-209.6
11
167.2
21
-209.6
0
LINE
8
0
6
CONTINUOUS
10
167.2
20
-209.6
11
167.2
21
-226.6
0
LINE
8
0
6
CONTINUOUS
10
186.25
20
-226.6
11
204.25
21
-226.6
0
LINE
8
0
6
CONTINUOUS
10
204.25
20
-226.6
11
204.25
21
-209.6
0
LINE
8
0
6
CONTINUOUS
10
204.25
20
-209.6
11
186.25
21
-209.6
0
LINE
8
0
6
CONTINUOUS
10
186.25
20
-209.6
11
186.25
21
-226.6
0
LINE
8
0
6
CONTINUOUS
10
205.3
20
-226.6
11
223.3
21
-226.6
0
LINE
8
0
6
CONTINUOUS
10
223.3
20
-226.6
11
223.3
21
-209.6
0
LINE
8
0
6
CONTINUOUS
10
223.3
20
-209.6
11
205.3
21
-209.6
0
LINE
8
0
6
CONTINUOUS
10
205.3
20
-209.6
11
205.3
21
-226.6
0
LINE
8
0
6
CONTINUOUS
10
224.35
20
-226.6
11
242.35
21
-226.6
0
LINE
8
0
6
CONTINUOUS
10
242.35
20
-226.6
11
242.35
21
-209.6
0
LINE
8
0
6
CONTINUOUS
10
242.35
20
-209.6
11
224.35
21
-209.6
0
LINE
8
0
6
CONTINUOUS
10
224.35
20
-209.6
11
224.35
21
-226.6
0
LINE
8
0
6
CONTINUOUS
10
93.38125
20
-245.65
11
111.38125
21
-245.65
0
LINE
8
0
6
CONTINUOUS
10
111.38125
20
-245.65
11
111.38125
21
-228.65
0
LINE
8
0
6
CONTINUOUS
10
111.38125
20
-228.65
11
93.38125
21
-228.65
0
LINE
8
0
6
CONTINUOUS
10
93.38125
20
-228.65
11
93.38125
21
-245.65
0
LINE
8
0
6
CONTINUOUS
10
117.19375
20
-245.65
11
135.19375
21
-245.65
0
LINE
8
0
6
CONTINUOUS
10
135.19375
20
-245.65
11
135.19375
21
-228.65
0
LINE
8
0
6
CONTINUOUS
10
135.19375
20
-228.65
11
117.19375
21
-228.65
0
LINE
8
0
6
CONTINUOUS
10
117.19375
20
-228.65
11
117.19375
21
-245.65
0
LINE
8
0
6
CONTINUOUS
10
141.00625
20
-245.65
11
159.00625
21
-245.65
0
LINE
8
0
6
CONTINUOUS
10
159.00625
20
-245.65
11
159.00625
21
-228.65
0
LINE
8
0
6
CONTINUOUS
10
159.00625
20
-228.65
11
141.00625
21
-228.65
0
LINE
8
0
6
CONTINUOUS
10
141.00625
20
-228.65
11
141.00625
21
-245.65
0
LINE
8
0
6
CONTINUOUS
10
164.81875
20
-245.65
11
182.81875
21
-245.65
0
LINE
8
0
6
CONTINUOUS
10
182.81875
20
-245.65
11
182.81875
21
-228.65
0
LINE
8
0
6
CONTINUOUS
10
182.81875
20
-228.65
11
164.81875
21
-228.65
0
LINE
8
0
6
CONTINUOUS
10
164.81875
20
-228.65
11
164.81875
21
-245.65
0
LINE
8
0
6
CONTINUOUS
10
186.25
20
-245.65
11
204.25
21
-245.65
0
LINE
8
0
6
CONTINUOUS
10
204.25
20
-245.65
11
204.25
21
-228.65
0
LINE
8
0
6
CONTINUOUS
10
204.25
20
-228.65
11
186.25
21
-228.65
0
LINE
8
0
6
CONTINUOUS
10
186.25
20
-228.65
11
186.25
21
-245.65
0
LINE
8
0
6
CONTINUOUS
10
205.3
20
-245.65
11
223.3
21
-245.65
0
LINE
8
0
6
CONTINUOUS
10
223.3
20
-245.65
11
223.3
21
-228.65
0
LINE
8
0
6
CONTINUOUS
10
223.3
20
-228.65
11
205.3
21
-228.65
0
LINE
8
0
6
CONTINUOUS
10
205.3
20
-228.65
11
205.3
21
-245.65
0
LINE
8
0
6
CONTINUOUS
10
224.35
20
-245.65
11
242.35
21
-245.65
0
LINE
8
0
6
CONTINUOUS
10
242.35
20
-245.65
11
242.35
21
-228.65
0
LINE
8
0
6
CONTINUOUS
10
242.35
20
-228.65
11
224.35
21
-228.65
0
LINE
8
0
6
CONTINUOUS
10
224.35
20
-228.65
11
224.35
21
-245.65
0
ENDSEC
0
EOF