0
SECTION
2
HEADER
9
$INSUNITS
70
4
0
ENDSEC
0
SECTION
2
TABLES
0
TABLE
2
LTYPE
0
LTYPE
72
65
70
0
2
CONTINUOUS
3
______
73
0
40
0
0
LTYPE
72
65
70
0
2
DASHED
3
_ _ _ 
73
2
40
7.5
49
5
49
-2.5
0
LTYPE
72
65
70
0
2
DOTTED
3
. . . 
73
2
40
1.5
49
0.5
49
-1
0
ENDTAB
0
TABLE
2
LAYER
0
ENDTAB
0
ENDSEC
0
SECTION
2
ENTITIES
0
LINE
8
0
6
CONTINUOUS
10
88.9620146
20
-247.7492358
11
88.999236
21
-150.3492358
0
LINE
8
0
6
CONTINUOUS
10
90.9992359
20
-148.35
11
269.85
21
-148.35
0
LINE
8
0
6
CONTINUOUS
10
271.85
20
-150.35
11
271.85
21
-247.75
0
LINE
8
0
6
CONTINUOUS
10
269.85
20
-249.75
11
90.9620145
21
-249.75
0
ARC
8
0
6
CONTINUOUS
10
90.9992359
20
-150.35
40
2
50
90
51
179.9781073
0
ARC
8
0
6
CONTINUOUS
10
269.85
20
-150.35
40
2
50
0
51
90
0
ARC
8
0
6
CONTINUOUS
10
269.85
20
-247.75
40
2
50
270
51
0
0
ARC
8
0
6
CONTINUOUS
10
90.9620145
20
-247.75
40
2
50
179.9781073
51
270
0
ENDSEC
0
EOF