0
SECTION
2
HEADER
9
$INSUNITS
70
4
0
ENDSEC
0
SECTION
2
TABLES
0
TABLE
2
LTYPE
0
LTYPE
72
65
70
0
2
CONTINUOUS
3
______
73
0
40
0
0
LTYPE
72
65
70
0
2
DASHED
3
_ _ _ 
73
2
40
7.5
49
5
49
-2.5
0
LTYPE
72
65
70
0
2
DOTTED
3
. . . 
73
2
40
1.5
49
0.5
49
-1
0
ENDTAB
0
TABLE
2
LAYER
0
ENDTAB
0
ENDSEC
0
SECTION
2
ENTITIES
0
LINE
8
0
6
CONTINUOUS
10
91.25
20
-108.25
11
108.75
21
-108.25
0
LINE
8
0
6
CONTINUOUS
10
108.75
20
-108.25
11
108.75
21
-91.75
0
LINE
8
0
6
CONTINUOUS
10
108.75
20
-91.75
11
91.25
21
-91.75
0
LINE
8
0
6
CONTINUOUS
10
91.25
20
-91.75
11
91.25
21
-108.25
0
LINE
8
0
6
CONTINUOUS
10
91.25
20
-89.2
11
108.75
21
-89.2
0
LINE
8
0
6
CONTINUOUS
10
108.75
20
-89.2
11
108.75
21
-72.7
0
LINE
8
0
6
CONTINUOUS
10
108.75
20
-72.7
11
91.25
21
-72.7
0
LINE
8
0
6
CONTINUOUS
10
91.25
20
-72.7
11
91.25
21
-89.2
0
LINE
8
0
6
CONTINUOUS
10
91.25
20
-70.15
11
108.75
21
-70.15
0
LINE
8
0
6
CONTINUOUS
10
108.75
20
-70.15
11
108.75
21
-53.65
0
LINE
8
0
6
CONTINUOUS
10
108.75
20
-53.65
11
91.25
21
-53.65
0
LINE
8
0
6
CONTINUOUS
10
91.25
20
-53.65
11
91.25
21
-70.15
0
LINE
8
0
6
CONTINUOUS
10
91.25
20
-51.1
11
108.75
21
-51.1
0
LINE
8
0
6
CONTINUOUS
10
108.75
20
-51.1
11
108.75
21
-34.6
0
LINE
8
0
6
CONTINUOUS
10
108.75
20
-34.6
11
91.25
21
-34.6
0
LINE
8
0
6
CONTINUOUS
10
91.25
20
-34.6
11
91.25
21
-51.1
0
LINE
8
0
6
CONTINUOUS
10
110.3
20
-108.25
11
127.8
21
-108.25
0
LINE
8
0
6
CONTINUOUS
10
127.8
20
-108.25
11
127.8
21
-91.75
0
LINE
8
0
6
CONTINUOUS
10
127.8
20
-91.75
11
110.3
21
-91.75
0
LINE
8
0
6
CONTINUOUS
10
110.3
20
-91.75
11
110.3
21
-108.25
0
LINE
8
0
6
CONTINUOUS
10
110.3
20
-89.2
11
127.8
21
-89.2
0
LINE
8
0
6
CONTINUOUS
10
127.8
20
-89.2
11
127.8
21
-72.7
0
LINE
8
0
6
CONTINUOUS
10
127.8
20
-72.7
11
110.3
21
-72.7
0
LINE
8
0
6
CONTINUOUS
10
110.3
20
-72.7
11
110.3
21
-89.2
0
LINE
8
0
6
CONTINUOUS
10
110.3
20
-70.15
11
127.8
21
-70.15
0
LINE
8
0
6
CONTINUOUS
10
127.8
20
-70.15
11
127.8
21
-53.65
0
LINE
8
0
6
CONTINUOUS
10
127.8
20
-53.65
11
110.3
21
-53.65
0
LINE
8
0
6
CONTINUOUS
10
110.3
20
-53.65
11
110.3
21
-70.15
0
LINE
8
0
6
CONTINUOUS
10
110.3
20
-51.1
11
127.8
21
-51.1
0
LINE
8
0
6
CONTINUOUS
10
127.8
20
-51.1
11
127.8
21
-34.6
0
LINE
8
0
6
CONTINUOUS
10
127.8
20
-34.6
11
110.3
21
-34.6
0
LINE
8
0
6
CONTINUOUS
10
110.3
20
-34.6
11
110.3
21
-51.1
0
LINE
8
0
6
CONTINUOUS
10
129.35
20
-108.25
11
146.85
21
-108.25
0
LINE
8
0
6
CONTINUOUS
10
146.85
20
-108.25
11
146.85
21
-91.75
0
LINE
8
0
6
CONTINUOUS
10
146.85
20
-91.75
11
129.35
21
-91.75
0
LINE
8
0
6
CONTINUOUS
10
129.35
20
-91.75
11
129.35
21
-108.25
0
LINE
8
0
6
CONTINUOUS
10
129.35
20
-89.2
11
146.85
21
-89.2
0
LINE
8
0
6
CONTINUOUS
10
146.85
20
-89.2
11
146.85
21
-72.7
0
LINE
8
0
6
CONTINUOUS
10
146.85
20
-72.7
11
129.35
21
-72.7
0
LINE
8
0
6
CONTINUOUS
10
129.35
20
-72.7
11
129.35
21
-89.2
0
LINE
8
0
6
CONTINUOUS
10
129.35
20
-70.15
11
146.85
21
-70.15
0
LINE
8
0
6
CONTINUOUS
10
146.85
20
-70.15
11
146.85
21
-53.65
0
LINE
8
0
6
CONTINUOUS
10
146.85
20
-53.65
11
129.35
21
-53.65
0
LINE
8
0
6
CONTINUOUS
10
129.35
20
-53.65
11
129.35
21
-70.15
0
LINE
8
0
6
CONTINUOUS
10
129.35
20
-51.1
11
146.85
21
-51.1
0
LINE
8
0
6
CONTINUOUS
10
146.85
20
-51.1
11
146.85
21
-34.6
0
LINE
8
0
6
CONTINUOUS
10
146.85
20
-34.6
11
129.35
21
-34.6
0
LINE
8
0
6
CONTINUOUS
10
129.35
20
-34.6
11
129.35
21
-51.1
0
LINE
8
0
6
CONTINUOUS
10
148.4
20
-108.25
11
165.9
21
-108.25
0
LINE
8
0
6
CONTINUOUS
10
165.9
20
-108.25
11
165.9
21
-91.75
0
LINE
8
0
6
CONTINUOUS
10
165.9
20
-91.75
11
148.4
21
-91.75
0
LINE
8
0
6
CONTINUOUS
10
148.4
20
-91.75
11
148.4
21
-108.25
0
LINE
8
0
6
CONTINUOUS
10
148.4
20
-89.2
11
165.9
21
-89.2
0
LINE
8
0
6
CONTINUOUS
10
165.9
20
-89.2
11
165.9
21
-72.7
0
LINE
8
0
6
CONTINUOUS
10
165.9
20
-72.7
11
148.4
21
-72.7
0
LINE
8
0
6
CONTINUOUS
10
148.4
20
-72.7
11
148.4
21
-89.2
0
LINE
8
0
6
CONTINUOUS
10
148.4
20
-70.15
11
165.9
21
-70.15
0
LINE
8
0
6
CONTINUOUS
10
165.9
20
-70.15
11
165.9
21
-53.65
0
LINE
8
0
6
CONTINUOUS
10
165.9
20
-53.65
11
148.4
21
-53.65
0
LINE
8
0
6
CONTINUOUS
10
148.4
20
-53.65
11
148.4
21
-70.15
0
LINE
8
0
6
CONTINUOUS
10
148.4
20
-51.1
11
165.9
21
-51.1
0
LINE
8
0
6
CONTINUOUS
10
165.9
20
-51.1
11
165.9
21
-34.6
0
LINE
8
0
6
CONTINUOUS
10
165.9
20
-34.6
11
148.4
21
-34.6
0
LINE
8
0
6
CONTINUOUS
10
148.4
20
-34.6
11
148.4
21
-51.1
0
LINE
8
0
6
CONTINUOUS
10
167.45
20
-108.25
11
184.95
21
-108.25
0
LINE
8
0
6
CONTINUOUS
10
184.95
20
-108.25
11
184.95
21
-91.75
0
LINE
8
0
6
CONTINUOUS
10
184.95
20
-91.75
11
167.45
21
-91.75
0
LINE
8
0
6
CONTINUOUS
10
167.45
20
-91.75
11
167.45
21
-108.25
0
LINE
8
0
6
CONTINUOUS
10
167.45
20
-89.2
11
184.95
21
-89.2
0
LINE
8
0
6
CONTINUOUS
10
184.95
20
-89.2
11
184.95
21
-72.7
0
LINE
8
0
6
CONTINUOUS
10
184.95
20
-72.7
11
167.45
21
-72.7
0
LINE
8
0
6
CONTINUOUS
10
167.45
20
-72.7
11
167.45
21
-89.2
0
LINE
8
0
6
CONTINUOUS
10
167.45
20
-70.15
11
184.95
21
-70.15
0
LINE
8
0
6
CONTINUOUS
10
184.95
20
-70.15
11
184.95
21
-53.65
0
LINE
8
0
6
CONTINUOUS
10
184.95
20
-53.65
11
167.45
21
-53.65
0
LINE
8
0
6
CONTINUOUS
10
167.45
20
-53.65
11
167.45
21
-70.15
0
LINE
8
0
6
CONTINUOUS
10
167.45
20
-51.1
11
184.95
21
-51.1
0
LINE
8
0
6
CONTINUOUS
10
184.95
20
-51.1
11
184.95
21
-34.6
0
LINE
8
0
6
CONTINUOUS
10
184.95
20
-34.6
11
167.45
21
-34.6
0
LINE
8
0
6
CONTINUOUS
10
167.45
20
-34.6
11
167.45
21
-51.1
0
LINE
8
0
6
CONTINUOUS
10
186.5
20
-108.25
11
204
21
-108.25
0
LINE
8
0
6
CONTINUOUS
10
204
20
-108.25
11
204
21
-91.75
0
LINE
8
0
6
CONTINUOUS
10
204
20
-91.75
11
186.5
21
-91.75
0
LINE
8
0
6
CONTINUOUS
10
186.5
20
-91.75
11
186.5
21
-108.25
0
LINE
8
0
6
CONTINUOUS
10
186.5
20
-89.2
11
204
21
-89.2
0
LINE
8
0
6
CONTINUOUS
10
204
20
-89.2
11
204
21
-72.7
0
LINE
8
0
6
CONTINUOUS
10
204
20
-72.7
11
186.5
21
-72.7
0
LINE
8
0
6
CONTINUOUS
10
186.5
20
-72.7
11
186.5
21
-89.2
0
LINE
8
0
6
CONTINUOUS
10
186.5
20
-70.15
11
204
21
-70.15
0
LINE
8
0
6
CONTINUOUS
10
204
20
-70.15
11
204
21
-53.65
0
LINE
8
0
6
CONTINUOUS
10
204
20
-53.65
11
186.5
21
-53.65
0
LINE
8
0
6
CONTINUOUS
10
186.5
20
-53.65
11
186.5
21
-70.15
0
LINE
8
0
6
CONTINUOUS
10
186.5
20
-51.1
11
204
21
-51.1
0
LINE
8
0
6
CONTINUOUS
10
204
20
-51.1
11
204
21
-34.6
0
LINE
8
0
6
CONTINUOUS
10
204
20
-34.6
11
186.5
21
-34.6
0
LINE
8
0
6
CONTINUOUS
10
186.5
20
-34.6
11
186.5
21
-51.1
0
LINE
8
0
6
CONTINUOUS
10
93.63125
20
-127.3
11
111.13125
21
-127.3
0
LINE
8
0
6
CONTINUOUS
10
111.13125
20
-127.3
11
111.13125
21
-110.8
0
LINE
8
0
6
CONTINUOUS
10
111.13125
20
-110.8
11
93.63125
21
-110.8
0
LINE
8
0
6
CONTINUOUS
10
93.63125
20
-110.8
11
93.63125
21
-127.3
0
LINE
8
0
6
CONTINUOUS
10
117.44375
20
-127.3
11
134.94375
21
-127.3
0
LINE
8
0
6
CONTINUOUS
10
134.94375
20
-127.3
11
134.94375
21
-110.8
0
LINE
8
0
6
CONTINUOUS
10
134.94375
20
-110.8
11
117.44375
21
-110.8
0
LINE
8
0
6
CONTINUOUS
10
117.44375
20
-110.8
11
117.44375
21
-127.3
0
LINE
8
0
6
CONTINUOUS
10
141.25625
20
-127.3
11
158.75625
21
-127.3
0
LINE
8
0
6
CONTINUOUS
10
158.75625
20
-127.3
11
158.75625
21
-110.8
0
LINE
8
0
6
CONTINUOUS
10
158.75625
20
-110.8
11
141.25625
21
-110.8
0
LINE
8
0
6
CONTINUOUS
10
141.25625
20
-110.8
11
141.25625
21
-127.3
0
LINE
8
0
6
CONTINUOUS
10
174.5915
20
-127.3
11
192.0915
21
-127.3
0
LINE
8
0
6
CONTINUOUS
10
192.0915
20
-127.3
11
192.0915
21
-110.8
0
LINE
8
0
6
CONTINUOUS
10
192.0915
20
-110.8
11
174.5915
21
-110.8
0
LINE
8
0
6
CONTINUOUS
10
174.5915
20
-110.8
11
174.5915
21
-127.3
0
LINE
8
0
6
CONTINUOUS
10
91.25
20
-188.25
11
108.75
21
-188.25
0
LINE
8
0
6
CONTINUOUS
10
108.75
20
-188.25
11
108.75
21
-171.75
0
LINE
8
0
6
CONTINUOUS
10
108.75
20
-171.75
11
91.25
21
-171.75
0
LINE
8
0
6
CONTINUOUS
10
91.25
20
-171.75
11
91.25
21
-188.25
0
LINE
8
0
6
CONTINUOUS
10
91.25
20
-169.2
11
108.75
21
-169.2
0
LINE
8
0
6
CONTINUOUS
10
108.75
20
-169.2
11
108.75
21
-152.7
0
LINE
8
0
6
CONTINUOUS
10
108.75
20
-152.7
11
91.25
21
-152.7
0
LINE
8
0
6
CONTINUOUS
10
91.25
20
-152.7
11
91.25
21
-169.2
0
LINE
8
0
6
CONTINUOUS
10
110.3
20
-188.25
11
127.8
21
-188.25
0
LINE
8
0
6
CONTINUOUS
10
127.8
20
-188.25
11
127.8
21
-171.75
0
LINE
8
0
6
CONTINUOUS
10
127.8
20
-171.75
11
110.3
21
-171.75
0
LINE
8
0
6
CONTINUOUS
10
110.3
20
-171.75
11
110.3
21
-188.25
0
LINE
8
0
6
CONTINUOUS
10
110.3
20
-169.2
11
127.8
21
-169.2
0
LINE
8
0
6
CONTINUOUS
10
127.8
20
-169.2
11
127.8
21
-152.7
0
LINE
8
0
6
CONTINUOUS
10
127.8
20
-152.7
11
110.3
21
-152.7
0
LINE
8
0
6
CONTINUOUS
10
110.3
20
-152.7
11
110.3
21
-169.2
0
LINE
8
0
6
CONTINUOUS
10
129.35
20
-188.25
11
146.85
21
-188.25
0
LINE
8
0
6
CONTINUOUS
10
146.85
20
-188.25
11
146.85
21
-171.75
0
LINE
8
0
6
CONTINUOUS
10
146.85
20
-171.75
11
129.35
21
-171.75
0
LINE
8
0
6
CONTINUOUS
10
129.35
20
-171.75
11
129.35
21
-188.25
0
LINE
8
0
6
CONTINUOUS
10
129.35
20
-169.2
11
146.85
21
-169.2
0
LINE
8
0
6
CONTINUOUS
10
146.85
20
-169.2
11
146.85
21
-152.7
0
LINE
8
0
6
CONTINUOUS
10
146.85
20
-152.7
11
129.35
21
-152.7
0
LINE
8
0
6
CONTINUOUS
10
129.35
20
-152.7
11
129.35
21
-169.2
0
LINE
8
0
6
CONTINUOUS
10
148.4
20
-188.25
11
165.9
21
-188.25
0
LINE
8
0
6
CONTINUOUS
10
165.9
20
-188.25
11
165.9
21
-171.75
0
LINE
8
0
6
CONTINUOUS
10
165.9
20
-171.75
11
148.4
21
-171.75
0
LINE
8
0
6
CONTINUOUS
10
148.4
20
-171.75
11
148.4
21
-188.25
0
LINE
8
0
6
CONTINUOUS
10
148.4
20
-169.2
11
165.9
21
-169.2
0
LINE
8
0
6
CONTINUOUS
10
165.9
20
-169.2
11
165.9
21
-152.7
0
LINE
8
0
6
CONTINUOUS
10
165.9
20
-152.7
11
148.4
21
-152.7
0
LINE
8
0
6
CONTINUOUS
10
148.4
20
-152.7
11
148.4
21
-169.2
0
LINE
8
0
6
CONTINUOUS
10
167.45
20
-188.25
11
184.95
21
-188.25
0
LINE
8
0
6
CONTINUOUS
10
184.95
20
-188.25
11
184.95
21
-171.75
0
LINE
8
0
6
CONTINUOUS
10
184.95
20
-171.75
11
167.45
21
-171.75
0
LINE
8
0
6
CONTINUOUS
10
167.45
20
-171.75
11
167.45
21
-188.25
0
LINE
8
0
6
CONTINUOUS
10
167.45
20
-169.2
11
184.95
21
-169.2
0
LINE
8
0
6
CONTINUOUS
10
184.95
20
-169.2
11
184.95
21
-152.7
0
LINE
8
0
6
CONTINUOUS
10
184.95
20
-152.7
11
167.45
21
-152.7
0
LINE
8
0
6
CONTINUOUS
10
167.45
20
-152.7
11
167.45
21
-169.2
0
LINE
8
0
6
CONTINUOUS
10
186.5
20
-188.25
11
204
21
-188.25
0
LINE
8
0
6
CONTINUOUS
10
204
20
-188.25
11
204
21
-171.75
0
LINE
8
0
6
CONTINUOUS
10
204
20
-171.75
11
186.5
21
-171.75
0
LINE
8
0
6
CONTINUOUS
10
186.5
20
-171.75
11
186.5
21
-188.25
0
LINE
8
0
6
CONTINUOUS
10
186.5
20
-169.2
11
204
21
-169.2
0
LINE
8
0
6
CONTINUOUS
10
204
20
-169.2
11
204
21
-152.7
0
LINE
8
0
6
CONTINUOUS
10
204
20
-152.7
11
186.5
21
-152.7
0
LINE
8
0
6
CONTINUOUS
10
186.5
20
-152.7
11
186.5
21
-169.2
0
LINE
8
0
6
CONTINUOUS
10
205.55
20
-188.25
11
223.05
21
-188.25
0
LINE
8
0
6
CONTINUOUS
10
223.05
20
-188.25
11
223.05
21
-171.75
0
LINE
8
0
6
CONTINUOUS
10
223.05
20
-171.75
11
205.55
21
-171.75
0
LINE
8
0
6
CONTINUOUS
10
205.55
20
-171.75
11
205.55
21
-188.25
0
LINE
8
0
6
CONTINUOUS
10
205.55
20
-169.2
11
223.05
21
-169.2
0
LINE
8
0
6
CONTINUOUS
10
223.05
20
-169.2
11
223.05
21
-152.7
0
LINE
8
0
6
CONTINUOUS
10
223.05
20
-152.7
11
205.55
21
-152.7
0
LINE
8
0
6
CONTINUOUS
10
205.55
20
-152.7
11
205.55
21
-169.2
0
LINE
8
0
6
CONTINUOUS
10
224.6
20
-188.25
11
242.1
21
-188.25
0
LINE
8
0
6
CONTINUOUS
10
242.1
20
-188.25
11
242.1
21
-171.75
0
LINE
8
0
6
CONTINUOUS
10
242.1
20
-171.75
11
224.6
21
-171.75
0
LINE
8
0
6
CONTINUOUS
10
224.6
20
-171.75
11
224.6
21
-188.25
0
LINE
8
0
6
CONTINUOUS
10
224.6
20
-169.2
11
242.1
21
-169.2
0
LINE
8
0
6
CONTINUOUS
10
242.1
20
-169.2
11
242.1
21
-152.7
0
LINE
8
0
6
CONTINUOUS
10
242.1
20
-152.7
11
224.6
21
-152.7
0
LINE
8
0
6
CONTINUOUS
10
224.6
20
-152.7
11
224.6
21
-169.2
0
LINE
8
0
6
CONTINUOUS
10
91.25
20
-207.3
11
108.75
21
-207.3
0
LINE
8
0
6
CONTINUOUS
10
108.75
20
-207.3
11
108.75
21
-190.8
0
LINE
8
0
6
CONTINUOUS
10
108.75
20
-190.8
11
91.25
21
-190.8
0
LINE
8
0
6
CONTINUOUS
10
91.25
20
-190.8
11
91.25
21
-207.3
0
LINE
8
0
6
CONTINUOUS
10
110.3
20
-207.3
11
127.8
21
-207.3
0
LINE
8
0
6
CONTINUOUS
10
127.8
20
-207.3
11
127.8
21
-190.8
0
LINE
8
0
6
CONTINUOUS
10
127.8
20
-190.8
11
110.3
21
-190.8
0
LINE
8
0
6
CONTINUOUS
10
110.3
20
-190.8
11
110.3
21
-207.3
0
LINE
8
0
6
CONTINUOUS
10
129.35
20
-207.3
11
146.85
21
-207.3
0
LINE
8
0
6
CONTINUOUS
10
146.85
20
-207.3
11
146.85
21
-190.8
0
LINE
8
0
6
CONTINUOUS
10
146.85
20
-190.8
11
129.35
21
-190.8
0
LINE
8
0
6
CONTINUOUS
10
129.35
20
-190.8
11
129.35
21
-207.3
0
LINE
8
0
6
CONTINUOUS
10
148.4
20
-207.3
11
165.9
21
-207.3
0
LINE
8
0
6
CONTINUOUS
10
165.9
20
-207.3
11
165.9
21
-190.8
0
LINE
8
0
6
CONTINUOUS
10
165.9
20
-190.8
11
148.4
21
-190.8
0
LINE
8
0
6
CONTINUOUS
10
148.4
20
-190.8
11
148.4
21
-207.3
0
LINE
8
0
6
CONTINUOUS
10
167.45
20
-207.3
11
184.95
21
-207.3
0
LINE
8
0
6
CONTINUOUS
10
184.95
20
-207.3
11
184.95
21
-190.8
0
LINE
8
0
6
CONTINUOUS
10
184.95
20
-190.8
11
167.45
21
-190.8
0
LINE
8
0
6
CONTINUOUS
10
167.45
20
-190.8
11
167.45
21
-207.3
0
LINE
8
0
6
CONTINUOUS
10
186.5
20
-207.3
11
204
21
-207.3
0
LINE
8
0
6
CONTINUOUS
10
204
20
-207.3
11
204
21
-190.8
0
LINE
8
0
6
CONTINUOUS
10
204
20
-190.8
11
186.5
21
-190.8
0
LINE
8
0
6
CONTINUOUS
10
186.5
20
-190.8
11
186.5
21
-207.3
0
LINE
8
0
6
CONTINUOUS
10
215.075
20
-207.3
11
232.575
21
-207.3
0
LINE
8
0
6
CONTINUOUS
10
232.575
20
-207.3
11
232.575
21
-190.8
0
LINE
8
0
6
CONTINUOUS
10
232.575
20
-190.8
11
215.075
21
-190.8
0
LINE
8
0
6
CONTINUOUS
10
215.075
20
-190.8
11
215.075
21
-207.3
0
LINE
8
0
6
CONTINUOUS
10
91.25
20
-226.35
11
108.75
21
-226.35
0
LINE
8
0
6
CONTINUOUS
10
108.75
20
-226.35
11
108.75
21
-209.85
0
LINE
8
0
6
CONTINUOUS
10
108.75
20
-209.85
11
91.25
21
-209.85
0
LINE
8
0
6
CONTINUOUS
10
91.25
20
-209.85
11
91.25
21
-226.35
0
LINE
8
0
6
CONTINUOUS
10
110.3
20
-226.35
11
127.8
21
-226.35
0
LINE
8
0
6
CONTINUOUS
10
127.8
20
-226.35
11
127.8
21
-209.85
0
LINE
8
0
6
CONTINUOUS
10
127.8
20
-209.85
11
110.3
21
-209.85
0
LINE
8
0
6
CONTINUOUS
10
110.3
20
-209.85
11
110.3
21
-226.35
0
LINE
8
0
6
CONTINUOUS
10
129.35
20
-226.35
11
146.85
21
-226.35
0
LINE
8
0
6
CONTINUOUS
10
146.85
20
-226.35
11
146.85
21
-209.85
0
LINE
8
0
6
CONTINUOUS
10
146.85
20
-209.85
11
129.35
21
-209.85
0
LINE
8
0
6
CONTINUOUS
10
129.35
20
-209.85
11
129.35
21
-226.35
0
LINE
8
0
6
CONTINUOUS
10
148.4
20
-226.35
11
165.9
21
-226.35
0
LINE
8
0
6
CONTINUOUS
10
165.9
20
-226.35
11
165.9
21
-209.85
0
LINE
8
0
6
CONTINUOUS
10
165.9
20
-209.85
11
148.4
21
-209.85
0
LINE
8
0
6
CONTINUOUS
10
148.4
20
-209.85
11
148.4
21
-226.35
0
LINE
8
0
6
CONTINUOUS
10
167.45
20
-226.35
11
184.95
21
-226.35
0
LINE
8
0
6
CONTINUOUS
10
184.95
20
-226.35
11
184.95
21
-209.85
0
LINE
8
0
6
CONTINUOUS
10
184.95
20
-209.85
11
167.45
21
-209.85
0
LINE
8
0
6
CONTINUOUS
10
167.45
20
-209.85
11
167.45
21
-226.35
0
LINE
8
0
6
CONTINUOUS
10
186.5
20
-226.35
11
204
21
-226.35
0
LINE
8
0
6
CONTINUOUS
10
204
20
-226.35
11
204
21
-209.85
0
LINE
8
0
6
CONTINUOUS
10
204
20
-209.85
11
186.5
21
-209.85
0
LINE
8
0
6
CONTINUOUS
10
186.5
20
-209.85
11
186.5
21
-226.35
0
LINE
8
0
6
CONTINUOUS
10
205.55
20
-226.35
11
223.05
21
-226.35
0
LINE
8
0
6
CONTINUOUS
10
223.05
20
-226.35
11
223.05
21
-209.85
0
LINE
8
0
6
CONTINUOUS
10
223.05
20
-209.85
11
205.55
21
-209.85
0
LINE
8
0
6
CONTINUOUS
10
205.55
20
-209.85
11
205.55
21
-226.35
0
LINE
8
0
6
CONTINUOUS
10
224.6
20
-226.35
11
242.1
21
-226.35
0
LINE
8
0
6
CONTINUOUS
10
242.1
20
-226.35
11
242.1
21
-209.85
0
LINE
8
0
6
CONTINUOUS
10
242.1
20
-209.85
11
224.6
21
-209.85
0
LINE
8
0
6
CONTINUOUS
10
224.6
20
-209.85
11
224.6
21
-226.35
0
LINE
8
0
6
CONTINUOUS
10
93.63125
20
-245.4
11
111.13125
21
-245.4
0
LINE
8
0
6
CONTINUOUS
10
111.13125
20
-245.4
11
111.13125
21
-228.9
0
LINE
8
0
6
CONTINUOUS
10
111.13125
20
-228.9
11
93.63125
21
-228.9
0
LINE
8
0
6
CONTINUOUS
10
93.63125
20
-228.9
11
93.63125
21
-245.4
0
LINE
8
0
6
CONTINUOUS
10
117.44375
20
-245.4
11
134.94375
21
-245.4
0
LINE
8
0
6
CONTINUOUS
10
134.94375
20
-245.4
11
134.94375
21
-228.9
0
LINE
8
0
6
CONTINUOUS
10
134.94375
20
-228.9
11
117.44375
21
-228.9
0
LINE
8
0
6
CONTINUOUS
10
117.44375
20
-228.9
11
117.44375
21
-245.4
0
LINE
8
0
6
CONTINUOUS
10
141.25625
20
-245.4
11
158.75625
21
-245.4
0
LINE
8
0
6
CONTINUOUS
10
158.75625
20
-245.4
11
158.75625
21
-228.9
0
LINE
8
0
6
CONTINUOUS
10
158.75625
20
-228.9
11
141.25625
21
-228.9
0
LINE
8
0
6
CONTINUOUS
10
141.25625
20
-228.9
11
141.25625
21
-245.4
0
LINE
8
0
6
CONTINUOUS
10
165.06875
20
-245.4
11
182.56875
21
-245.4
0
LINE
8
0
6
CONTINUOUS
10
182.56875
20
-245.4
11
182.56875
21
-228.9
0
LINE
8
0
6
CONTINUOUS
10
182.56875
20
-228.9
11
165.06875
21
-228.9
0
LINE
8
0
6
CONTINUOUS
10
165.06875
20
-228.9
11
165.06875
21
-245.4
0
LINE
8
0
6
CONTINUOUS
10
186.5
20
-245.4
11
204
21
-245.4
0
LINE
8
0
6
CONTINUOUS
10
204
20
-245.4
11
204
21
-228.9
0
LINE
8
0
6
CONTINUOUS
10
204
20
-228.9
11
186.5
21
-228.9
0
LINE
8
0
6
CONTINUOUS
10
186.5
20
-228.9
11
186.5
21
-245.4
0
LINE
8
0
6
CONTINUOUS
10
205.55
20
-245.4
11
223.05
21
-245.4
0
LINE
8
0
6
CONTINUOUS
10
223.05
20
-245.4
11
223.05
21
-228.9
0
LINE
8
0
6
CONTINUOUS
10
223.05
20
-228.9
11
205.55
21
-228.9
0
LINE
8
0
6
CONTINUOUS
10
205.55
20
-228.9
11
205.55
21
-245.4
0
LINE
8
0
6
CONTINUOUS
10
224.6
20
-245.4
11
242.1
21
-245.4
0
LINE
8
0
6
CONTINUOUS
10
242.1
20
-245.4
11
242.1
21
-228.9
0
LINE
8
0
6
CONTINUOUS
10
242.1
20
-228.9
11
224.6
21
-228.9
0
LINE
8
0
6
CONTINUOUS
10
224.6
20
-228.9
11
224.6
21
-245.4
0
LINE
8
0
6
CONTINUOUS
10
234.75
20
-207.05
11
241.75
21
-207.05
0
LINE
8
0
6
CONTINUOUS
10
241.75
20
-207.05
11
241.75
21
-193.05
0
LINE
8
0
6
CONTINUOUS
10
241.75
20
-193.05
11
234.75
21
-193.05
0
LINE
8
0
6
CONTINUOUS
10
234.75
20
-193.05
11
234.75
21
-207.05
0
LINE
8
0
6
CONTINUOUS
10
205.9
20
-207.05
11
212.9
21
-207.05
0
LINE
8
0
6
CONTINUOUS
10
212.9
20
-207.05
11
212.9
21
-193.05
0
LINE
8
0
6
CONTINUOUS
10
212.9
20
-193.05
11
205.9
21
-193.05
0
LINE
8
0
6
CONTINUOUS
10
205.9
20
-193.05
11
205.9
21
-207.05
0
ENDSEC
0
EOF