0
SECTION
2
HEADER
9
$INSUNITS
70
4
0
ENDSEC
0
SECTION
2
TABLES
0
TABLE
2
LTYPE
0
LTYPE
72
65
70
64
2
CONTINUOUS
3
______
73
0
40
0
0
ENDTAB
0
TABLE
2
LAYER
0
ENDTAB
0
ENDSEC
0
SECTION
2
ENTITIES
0
LINE
8
0
10
83.0087949
20
-125.4912436
11
83.4912818
21
-15.2912436
0
LINE
8
0
10
85.4912626
20
-13.3
11
198.9956169
21
-13.3
0
LINE
8
0
10
200.9956121
20
-15.3043782
11
200.7543687
21
-125.5043782
0
LINE
8
0
10
198.7543735
20
-127.5
11
85.0087757
21
-127.5
0
ARC
8
0
10
85.4912626
20
-15.3
40
2
50
90
51
179.7491468
0
ARC
8
0
10
198.9956169
20
-15.3
40
2
50
359.8745737
51
90
0
ARC
8
0
10
198.7543735
20
-125.5
40
2
50
270
51
359.8745737
0
ARC
8
0
10
85.0087757
20
-125.5
40
2
50
179.7491468
51
270
0
LINE
8
0
10
91.25
20
-108.25
11
108.75
21
-108.25
0
LINE
8
0
10
108.75
20
-108.25
11
108.75
21
-91.75
0
LINE
8
0
10
108.75
20
-91.75
11
91.25
21
-91.75
0
LINE
8
0
10
91.25
20
-91.75
11
91.25
21
-108.25
0
LINE
8
0
10
91.25
20
-91.25
11
108.75
21
-91.25
0
LINE
8
0
10
108.75
20
-91.25
11
108.75
21
-74.75
0
LINE
8
0
10
108.75
20
-74.75
11
91.25
21
-74.75
0
LINE
8
0
10
91.25
20
-74.75
11
91.25
21
-91.25
0
LINE
8
0
10
91.25
20
-74.25
11
108.75
21
-74.25
0
LINE
8
0
10
108.75
20
-74.25
11
108.75
21
-57.75
0
LINE
8
0
10
108.75
20
-57.75
11
91.25
21
-57.75
0
LINE
8
0
10
91.25
20
-57.75
11
91.25
21
-74.25
0
LINE
8
0
10
91.25
20
-57.25
11
108.75
21
-57.25
0
LINE
8
0
10
108.75
20
-57.25
11
108.75
21
-40.75
0
LINE
8
0
10
108.75
20
-40.75
11
91.25
21
-40.75
0
LINE
8
0
10
91.25
20
-40.75
11
91.25
21
-57.25
0
LINE
8
0
10
109.25
20
-108.25
11
126.75
21
-108.25
0
LINE
8
0
10
126.75
20
-108.25
11
126.75
21
-91.75
0
LINE
8
0
10
126.75
20
-91.75
11
109.25
21
-91.75
0
LINE
8
0
10
109.25
20
-91.75
11
109.25
21
-108.25
0
LINE
8
0
10
109.25
20
-91.25
11
126.75
21
-91.25
0
LINE
8
0
10
126.75
20
-91.25
11
126.75
21
-74.75
0
LINE
8
0
10
126.75
20
-74.75
11
109.25
21
-74.75
0
LINE
8
0
10
109.25
20
-74.75
11
109.25
21
-91.25
0
LINE
8
0
10
109.25
20
-74.25
11
126.75
21
-74.25
0
LINE
8
0
10
126.75
20
-74.25
11
126.75
21
-57.75
0
LINE
8
0
10
126.75
20
-57.75
11
109.25
21
-57.75
0
LINE
8
0
10
109.25
20
-57.75
11
109.25
21
-74.25
0
LINE
8
0
10
109.25
20
-57.25
11
126.75
21
-57.25
0
LINE
8
0
10
126.75
20
-57.25
11
126.75
21
-40.75
0
LINE
8
0
10
126.75
20
-40.75
11
109.25
21
-40.75
0
LINE
8
0
10
109.25
20
-40.75
11
109.25
21
-57.25
0
LINE
8
0
10
127.25
20
-108.25
11
144.75
21
-108.25
0
LINE
8
0
10
144.75
20
-108.25
11
144.75
21
-91.75
0
LINE
8
0
10
144.75
20
-91.75
11
127.25
21
-91.75
0
LINE
8
0
10
127.25
20
-91.75
11
127.25
21
-108.25
0
LINE
8
0
10
127.25
20
-91.25
11
144.75
21
-91.25
0
LINE
8
0
10
144.75
20
-91.25
11
144.75
21
-74.75
0
LINE
8
0
10
144.75
20
-74.75
11
127.25
21
-74.75
0
LINE
8
0
10
127.25
20
-74.75
11
127.25
21
-91.25
0
LINE
8
0
10
127.25
20
-74.25
11
144.75
21
-74.25
0
LINE
8
0
10
144.75
20
-74.25
11
144.75
21
-57.75
0
LINE
8
0
10
144.75
20
-57.75
11
127.25
21
-57.75
0
LINE
8
0
10
127.25
20
-57.75
11
127.25
21
-74.25
0
LINE
8
0
10
127.25
20
-57.25
11
144.75
21
-57.25
0
LINE
8
0
10
144.75
20
-57.25
11
144.75
21
-40.75
0
LINE
8
0
10
144.75
20
-40.75
11
127.25
21
-40.75
0
LINE
8
0
10
127.25
20
-40.75
11
127.25
21
-57.25
0
LINE
8
0
10
145.25
20
-108.25
11
162.75
21
-108.25
0
LINE
8
0
10
162.75
20
-108.25
11
162.75
21
-91.75
0
LINE
8
0
10
162.75
20
-91.75
11
145.25
21
-91.75
0
LINE
8
0
10
145.25
20
-91.75
11
145.25
21
-108.25
0
LINE
8
0
10
145.25
20
-91.25
11
162.75
21
-91.25
0
LINE
8
0
10
162.75
20
-91.25
11
162.75
21
-74.75
0
LINE
8
0
10
162.75
20
-74.75
11
145.25
21
-74.75
0
LINE
8
0
10
145.25
20
-74.75
11
145.25
21
-91.25
0
LINE
8
0
10
145.25
20
-74.25
11
162.75
21
-74.25
0
LINE
8
0
10
162.75
20
-74.25
11
162.75
21
-57.75
0
LINE
8
0
10
162.75
20
-57.75
11
145.25
21
-57.75
0
LINE
8
0
10
145.25
20
-57.75
11
145.25
21
-74.25
0
LINE
8
0
10
145.25
20
-57.25
11
162.75
21
-57.25
0
LINE
8
0
10
162.75
20
-57.25
11
162.75
21
-40.75
0
LINE
8
0
10
162.75
20
-40.75
11
145.25
21
-40.75
0
LINE
8
0
10
145.25
20
-40.75
11
145.25
21
-57.25
0
LINE
8
0
10
163.25
20
-108.25
11
180.75
21
-108.25
0
LINE
8
0
10
180.75
20
-108.25
11
180.75
21
-91.75
0
LINE
8
0
10
180.75
20
-91.75
11
163.25
21
-91.75
0
LINE
8
0
10
163.25
20
-91.75
11
163.25
21
-108.25
0
LINE
8
0
10
163.25
20
-91.25
11
180.75
21
-91.25
0
LINE
8
0
10
180.75
20
-91.25
11
180.75
21
-74.75
0
LINE
8
0
10
180.75
20
-74.75
11
163.25
21
-74.75
0
LINE
8
0
10
163.25
20
-74.75
11
163.25
21
-91.25
0
LINE
8
0
10
163.25
20
-74.25
11
180.75
21
-74.25
0
LINE
8
0
10
180.75
20
-74.25
11
180.75
21
-57.75
0
LINE
8
0
10
180.75
20
-57.75
11
163.25
21
-57.75
0
LINE
8
0
10
163.25
20
-57.75
11
163.25
21
-74.25
0
LINE
8
0
10
163.25
20
-57.25
11
180.75
21
-57.25
0
LINE
8
0
10
180.75
20
-57.25
11
180.75
21
-40.75
0
LINE
8
0
10
180.75
20
-40.75
11
163.25
21
-40.75
0
LINE
8
0
10
163.25
20
-40.75
11
163.25
21
-57.25
0
LINE
8
0
10
181.25
20
-108.25
11
198.75
21
-108.25
0
LINE
8
0
10
198.75
20
-108.25
11
198.75
21
-91.75
0
LINE
8
0
10
198.75
20
-91.75
11
181.25
21
-91.75
0
LINE
8
0
10
181.25
20
-91.75
11
181.25
21
-108.25
0
LINE
8
0
10
181.25
20
-91.25
11
198.75
21
-91.25
0
LINE
8
0
10
198.75
20
-91.25
11
198.75
21
-74.75
0
LINE
8
0
10
198.75
20
-74.75
11
181.25
21
-74.75
0
LINE
8
0
10
181.25
20
-74.75
11
181.25
21
-91.25
0
LINE
8
0
10
181.25
20
-74.25
11
198.75
21
-74.25
0
LINE
8
0
10
198.75
20
-74.25
11
198.75
21
-57.75
0
LINE
8
0
10
198.75
20
-57.75
11
181.25
21
-57.75
0
LINE
8
0
10
181.25
20
-57.75
11
181.25
21
-74.25
0
LINE
8
0
10
181.25
20
-57.25
11
198.75
21
-57.25
0
LINE
8
0
10
198.75
20
-57.25
11
198.75
21
-40.75
0
LINE
8
0
10
198.75
20
-40.75
11
181.25
21
-40.75
0
LINE
8
0
10
181.25
20
-40.75
11
181.25
21
-57.25
0
LINE
8
0
10
93.5
20
-125.25
11
111
21
-125.25
0
LINE
8
0
10
111
20
-125.25
11
111
21
-108.75
0
LINE
8
0
10
111
20
-108.75
11
93.5
21
-108.75
0
LINE
8
0
10
93.5
20
-108.75
11
93.5
21
-125.25
0
LINE
8
0
10
116
20
-125.25
11
133.5
21
-125.25
0
LINE
8
0
10
133.5
20
-125.25
11
133.5
21
-108.75
0
LINE
8
0
10
133.5
20
-108.75
11
116
21
-108.75
0
LINE
8
0
10
116
20
-108.75
11
116
21
-125.25
0
LINE
8
0
10
138.5
20
-125.25
11
156
21
-125.25
0
LINE
8
0
10
156
20
-125.25
11
156
21
-108.75
0
LINE
8
0
10
156
20
-108.75
11
138.5
21
-108.75
0
LINE
8
0
10
138.5
20
-108.75
11
138.5
21
-125.25
0
LINE
8
0
10
170
20
-125.25
11
187.5
21
-125.25
0
LINE
8
0
10
187.5
20
-125.25
11
187.5
21
-108.75
0
LINE
8
0
10
187.5
20
-108.75
11
170
21
-108.75
0
LINE
8
0
10
170
20
-108.75
11
170
21
-125.25
0
LINE
8
0
10
189.675
20
-125
11
196.675
21
-125
0
LINE
8
0
10
196.675
20
-125
11
196.675
21
-111
0
LINE
8
0
10
196.675
20
-111
11
189.675
21
-111
0
LINE
8
0
10
189.675
20
-111
11
189.675
21
-125
0
LINE
8
0
10
160.825
20
-125
11
167.825
21
-125
0
LINE
8
0
10
167.825
20
-125
11
167.825
21
-111
0
LINE
8
0
10
167.825
20
-111
11
160.825
21
-111
0
LINE
8
0
10
160.825
20
-111
11
160.825
21
-125
0
ENDSEC
0
EOF