0
SECTION
2
HEADER
9
$INSUNITS
70
4
0
ENDSEC
0
SECTION
2
TABLES
0
TABLE
2
LTYPE
0
LTYPE
72
65
70
64
2
CONTINUOUS
3
______
73
0
40
0
0
ENDTAB
0
TABLE
2
LAYER
0
ENDTAB
0
ENDSEC
0
SECTION
2
ENTITIES
0
LINE
8
0
10
91.25
20
-108.25
11
108.75
21
-108.25
0
LINE
8
0
10
108.75
20
-108.25
11
108.75
21
-91.75
0
LINE
8
0
10
108.75
20
-91.75
11
91.25
21
-91.75
0
LINE
8
0
10
91.25
20
-91.75
11
91.25
21
-108.25
0
LINE
8
0
10
91.25
20
-89.2
11
108.75
21
-89.2
0
LINE
8
0
10
108.75
20
-89.2
11
108.75
21
-72.7
0
LINE
8
0
10
108.75
20
-72.7
11
91.25
21
-72.7
0
LINE
8
0
10
91.25
20
-72.7
11
91.25
21
-89.2
0
LINE
8
0
10
91.25
20
-70.15
11
108.75
21
-70.15
0
LINE
8
0
10
108.75
20
-70.15
11
108.75
21
-53.65
0
LINE
8
0
10
108.75
20
-53.65
11
91.25
21
-53.65
0
LINE
8
0
10
91.25
20
-53.65
11
91.25
21
-70.15
0
LINE
8
0
10
91.25
20
-51.1
11
108.75
21
-51.1
0
LINE
8
0
10
108.75
20
-51.1
11
108.75
21
-34.6
0
LINE
8
0
10
108.75
20
-34.6
11
91.25
21
-34.6
0
LINE
8
0
10
91.25
20
-34.6
11
91.25
21
-51.1
0
LINE
8
0
10
110.3
20
-108.25
11
127.8
21
-108.25
0
LINE
8
0
10
127.8
20
-108.25
11
127.8
21
-91.75
0
LINE
8
0
10
127.8
20
-91.75
11
110.3
21
-91.75
0
LINE
8
0
10
110.3
20
-91.75
11
110.3
21
-108.25
0
LINE
8
0
10
110.3
20
-89.2
11
127.8
21
-89.2
0
LINE
8
0
10
127.8
20
-89.2
11
127.8
21
-72.7
0
LINE
8
0
10
127.8
20
-72.7
11
110.3
21
-72.7
0
LINE
8
0
10
110.3
20
-72.7
11
110.3
21
-89.2
0
LINE
8
0
10
110.3
20
-70.15
11
127.8
21
-70.15
0
LINE
8
0
10
127.8
20
-70.15
11
127.8
21
-53.65
0
LINE
8
0
10
127.8
20
-53.65
11
110.3
21
-53.65
0
LINE
8
0
10
110.3
20
-53.65
11
110.3
21
-70.15
0
LINE
8
0
10
110.3
20
-51.1
11
127.8
21
-51.1
0
LINE
8
0
10
127.8
20
-51.1
11
127.8
21
-34.6
0
LINE
8
0
10
127.8
20
-34.6
11
110.3
21
-34.6
0
LINE
8
0
10
110.3
20
-34.6
11
110.3
21
-51.1
0
LINE
8
0
10
129.35
20
-108.25
11
146.85
21
-108.25
0
LINE
8
0
10
146.85
20
-108.25
11
146.85
21
-91.75
0
LINE
8
0
10
146.85
20
-91.75
11
129.35
21
-91.75
0
LINE
8
0
10
129.35
20
-91.75
11
129.35
21
-108.25
0
LINE
8
0
10
129.35
20
-89.2
11
146.85
21
-89.2
0
LINE
8
0
10
146.85
20
-89.2
11
146.85
21
-72.7
0
LINE
8
0
10
146.85
20
-72.7
11
129.35
21
-72.7
0
LINE
8
0
10
129.35
20
-72.7
11
129.35
21
-89.2
0
LINE
8
0
10
129.35
20
-70.15
11
146.85
21
-70.15
0
LINE
8
0
10
146.85
20
-70.15
11
146.85
21
-53.65
0
LINE
8
0
10
146.85
20
-53.65
11
129.35
21
-53.65
0
LINE
8
0
10
129.35
20
-53.65
11
129.35
21
-70.15
0
LINE
8
0
10
129.35
20
-51.1
11
146.85
21
-51.1
0
LINE
8
0
10
146.85
20
-51.1
11
146.85
21
-34.6
0
LINE
8
0
10
146.85
20
-34.6
11
129.35
21
-34.6
0
LINE
8
0
10
129.35
20
-34.6
11
129.35
21
-51.1
0
LINE
8
0
10
148.4
20
-108.25
11
165.9
21
-108.25
0
LINE
8
0
10
165.9
20
-108.25
11
165.9
21
-91.75
0
LINE
8
0
10
165.9
20
-91.75
11
148.4
21
-91.75
0
LINE
8
0
10
148.4
20
-91.75
11
148.4
21
-108.25
0
LINE
8
0
10
148.4
20
-89.2
11
165.9
21
-89.2
0
LINE
8
0
10
165.9
20
-89.2
11
165.9
21
-72.7
0
LINE
8
0
10
165.9
20
-72.7
11
148.4
21
-72.7
0
LINE
8
0
10
148.4
20
-72.7
11
148.4
21
-89.2
0
LINE
8
0
10
148.4
20
-70.15
11
165.9
21
-70.15
0
LINE
8
0
10
165.9
20
-70.15
11
165.9
21
-53.65
0
LINE
8
0
10
165.9
20
-53.65
11
148.4
21
-53.65
0
LINE
8
0
10
148.4
20
-53.65
11
148.4
21
-70.15
0
LINE
8
0
10
148.4
20
-51.1
11
165.9
21
-51.1
0
LINE
8
0
10
165.9
20
-51.1
11
165.9
21
-34.6
0
LINE
8
0
10
165.9
20
-34.6
11
148.4
21
-34.6
0
LINE
8
0
10
148.4
20
-34.6
11
148.4
21
-51.1
0
LINE
8
0
10
167.45
20
-108.25
11
184.95
21
-108.25
0
LINE
8
0
10
184.95
20
-108.25
11
184.95
21
-91.75
0
LINE
8
0
10
184.95
20
-91.75
11
167.45
21
-91.75
0
LINE
8
0
10
167.45
20
-91.75
11
167.45
21
-108.25
0
LINE
8
0
10
167.45
20
-89.2
11
184.95
21
-89.2
0
LINE
8
0
10
184.95
20
-89.2
11
184.95
21
-72.7
0
LINE
8
0
10
184.95
20
-72.7
11
167.45
21
-72.7
0
LINE
8
0
10
167.45
20
-72.7
11
167.45
21
-89.2
0
LINE
8
0
10
167.45
20
-70.15
11
184.95
21
-70.15
0
LINE
8
0
10
184.95
20
-70.15
11
184.95
21
-53.65
0
LINE
8
0
10
184.95
20
-53.65
11
167.45
21
-53.65
0
LINE
8
0
10
167.45
20
-53.65
11
167.45
21
-70.15
0
LINE
8
0
10
167.45
20
-51.1
11
184.95
21
-51.1
0
LINE
8
0
10
184.95
20
-51.1
11
184.95
21
-34.6
0
LINE
8
0
10
184.95
20
-34.6
11
167.45
21
-34.6
0
LINE
8
0
10
167.45
20
-34.6
11
167.45
21
-51.1
0
LINE
8
0
10
186.5
20
-108.25
11
204
21
-108.25
0
LINE
8
0
10
204
20
-108.25
11
204
21
-91.75
0
LINE
8
0
10
204
20
-91.75
11
186.5
21
-91.75
0
LINE
8
0
10
186.5
20
-91.75
11
186.5
21
-108.25
0
LINE
8
0
10
186.5
20
-89.2
11
204
21
-89.2
0
LINE
8
0
10
204
20
-89.2
11
204
21
-72.7
0
LINE
8
0
10
204
20
-72.7
11
186.5
21
-72.7
0
LINE
8
0
10
186.5
20
-72.7
11
186.5
21
-89.2
0
LINE
8
0
10
186.5
20
-70.15
11
204
21
-70.15
0
LINE
8
0
10
204
20
-70.15
11
204
21
-53.65
0
LINE
8
0
10
204
20
-53.65
11
186.5
21
-53.65
0
LINE
8
0
10
186.5
20
-53.65
11
186.5
21
-70.15
0
LINE
8
0
10
186.5
20
-51.1
11
204
21
-51.1
0
LINE
8
0
10
204
20
-51.1
11
204
21
-34.6
0
LINE
8
0
10
204
20
-34.6
11
186.5
21
-34.6
0
LINE
8
0
10
186.5
20
-34.6
11
186.5
21
-51.1
0
LINE
8
0
10
93.63125
20
-127.3
11
111.13125
21
-127.3
0
LINE
8
0
10
111.13125
20
-127.3
11
111.13125
21
-110.8
0
LINE
8
0
10
111.13125
20
-110.8
11
93.63125
21
-110.8
0
LINE
8
0
10
93.63125
20
-110.8
11
93.63125
21
-127.3
0
LINE
8
0
10
117.44375
20
-127.3
11
134.94375
21
-127.3
0
LINE
8
0
10
134.94375
20
-127.3
11
134.94375
21
-110.8
0
LINE
8
0
10
134.94375
20
-110.8
11
117.44375
21
-110.8
0
LINE
8
0
10
117.44375
20
-110.8
11
117.44375
21
-127.3
0
LINE
8
0
10
141.25625
20
-127.3
11
158.75625
21
-127.3
0
LINE
8
0
10
158.75625
20
-127.3
11
158.75625
21
-110.8
0
LINE
8
0
10
158.75625
20
-110.8
11
141.25625
21
-110.8
0
LINE
8
0
10
141.25625
20
-110.8
11
141.25625
21
-127.3
0
LINE
8
0
10
174.5915
20
-127.3
11
192.0915
21
-127.3
0
LINE
8
0
10
192.0915
20
-127.3
11
192.0915
21
-110.8
0
LINE
8
0
10
192.0915
20
-110.8
11
174.5915
21
-110.8
0
LINE
8
0
10
174.5915
20
-110.8
11
174.5915
21
-127.3
0
ENDSEC
0
EOF