0
SECTION
2
HEADER
9
$INSUNITS
70
4
0
ENDSEC
0
SECTION
2
TABLES
0
TABLE
2
LTYPE
0
LTYPE
72
65
70
64
2
CONTINUOUS
3
______
73
0
40
0
0
ENDTAB
0
TABLE
2
LAYER
0
ENDTAB
0
ENDSEC
0
SECTION
2
ENTITIES
0
LINE
8
0
10
91
20
-108.5
11
109
21
-108.5
0
LINE
8
0
10
109
20
-108.5
11
109
21
-91.5
0
LINE
8
0
10
109
20
-91.5
11
91
21
-91.5
0
LINE
8
0
10
91
20
-91.5
11
91
21
-108.5
0
LINE
8
0
10
91
20
-89.45
11
109
21
-89.45
0
LINE
8
0
10
109
20
-89.45
11
109
21
-72.45
0
LINE
8
0
10
109
20
-72.45
11
91
21
-72.45
0
LINE
8
0
10
91
20
-72.45
11
91
21
-89.45
0
LINE
8
0
10
91
20
-70.4
11
109
21
-70.4
0
LINE
8
0
10
109
20
-70.4
11
109
21
-53.4
0
LINE
8
0
10
109
20
-53.4
11
91
21
-53.4
0
LINE
8
0
10
91
20
-53.4
11
91
21
-70.4
0
LINE
8
0
10
91
20
-51.35
11
109
21
-51.35
0
LINE
8
0
10
109
20
-51.35
11
109
21
-34.35
0
LINE
8
0
10
109
20
-34.35
11
91
21
-34.35
0
LINE
8
0
10
91
20
-34.35
11
91
21
-51.35
0
LINE
8
0
10
110.05
20
-108.5
11
128.05
21
-108.5
0
LINE
8
0
10
128.05
20
-108.5
11
128.05
21
-91.5
0
LINE
8
0
10
128.05
20
-91.5
11
110.05
21
-91.5
0
LINE
8
0
10
110.05
20
-91.5
11
110.05
21
-108.5
0
LINE
8
0
10
110.05
20
-89.45
11
128.05
21
-89.45
0
LINE
8
0
10
128.05
20
-89.45
11
128.05
21
-72.45
0
LINE
8
0
10
128.05
20
-72.45
11
110.05
21
-72.45
0
LINE
8
0
10
110.05
20
-72.45
11
110.05
21
-89.45
0
LINE
8
0
10
110.05
20
-70.4
11
128.05
21
-70.4
0
LINE
8
0
10
128.05
20
-70.4
11
128.05
21
-53.4
0
LINE
8
0
10
128.05
20
-53.4
11
110.05
21
-53.4
0
LINE
8
0
10
110.05
20
-53.4
11
110.05
21
-70.4
0
LINE
8
0
10
110.05
20
-51.35
11
128.05
21
-51.35
0
LINE
8
0
10
128.05
20
-51.35
11
128.05
21
-34.35
0
LINE
8
0
10
128.05
20
-34.35
11
110.05
21
-34.35
0
LINE
8
0
10
110.05
20
-34.35
11
110.05
21
-51.35
0
LINE
8
0
10
129.1
20
-108.5
11
147.1
21
-108.5
0
LINE
8
0
10
147.1
20
-108.5
11
147.1
21
-91.5
0
LINE
8
0
10
147.1
20
-91.5
11
129.1
21
-91.5
0
LINE
8
0
10
129.1
20
-91.5
11
129.1
21
-108.5
0
LINE
8
0
10
129.1
20
-89.45
11
147.1
21
-89.45
0
LINE
8
0
10
147.1
20
-89.45
11
147.1
21
-72.45
0
LINE
8
0
10
147.1
20
-72.45
11
129.1
21
-72.45
0
LINE
8
0
10
129.1
20
-72.45
11
129.1
21
-89.45
0
LINE
8
0
10
129.1
20
-70.4
11
147.1
21
-70.4
0
LINE
8
0
10
147.1
20
-70.4
11
147.1
21
-53.4
0
LINE
8
0
10
147.1
20
-53.4
11
129.1
21
-53.4
0
LINE
8
0
10
129.1
20
-53.4
11
129.1
21
-70.4
0
LINE
8
0
10
129.1
20
-51.35
11
147.1
21
-51.35
0
LINE
8
0
10
147.1
20
-51.35
11
147.1
21
-34.35
0
LINE
8
0
10
147.1
20
-34.35
11
129.1
21
-34.35
0
LINE
8
0
10
129.1
20
-34.35
11
129.1
21
-51.35
0
LINE
8
0
10
148.15
20
-108.5
11
166.15
21
-108.5
0
LINE
8
0
10
166.15
20
-108.5
11
166.15
21
-91.5
0
LINE
8
0
10
166.15
20
-91.5
11
148.15
21
-91.5
0
LINE
8
0
10
148.15
20
-91.5
11
148.15
21
-108.5
0
LINE
8
0
10
148.15
20
-89.45
11
166.15
21
-89.45
0
LINE
8
0
10
166.15
20
-89.45
11
166.15
21
-72.45
0
LINE
8
0
10
166.15
20
-72.45
11
148.15
21
-72.45
0
LINE
8
0
10
148.15
20
-72.45
11
148.15
21
-89.45
0
LINE
8
0
10
148.15
20
-70.4
11
166.15
21
-70.4
0
LINE
8
0
10
166.15
20
-70.4
11
166.15
21
-53.4
0
LINE
8
0
10
166.15
20
-53.4
11
148.15
21
-53.4
0
LINE
8
0
10
148.15
20
-53.4
11
148.15
21
-70.4
0
LINE
8
0
10
148.15
20
-51.35
11
166.15
21
-51.35
0
LINE
8
0
10
166.15
20
-51.35
11
166.15
21
-34.35
0
LINE
8
0
10
166.15
20
-34.35
11
148.15
21
-34.35
0
LINE
8
0
10
148.15
20
-34.35
11
148.15
21
-51.35
0
LINE
8
0
10
167.2
20
-108.5
11
185.2
21
-108.5
0
LINE
8
0
10
185.2
20
-108.5
11
185.2
21
-91.5
0
LINE
8
0
10
185.2
20
-91.5
11
167.2
21
-91.5
0
LINE
8
0
10
167.2
20
-91.5
11
167.2
21
-108.5
0
LINE
8
0
10
167.2
20
-89.45
11
185.2
21
-89.45
0
LINE
8
0
10
185.2
20
-89.45
11
185.2
21
-72.45
0
LINE
8
0
10
185.2
20
-72.45
11
167.2
21
-72.45
0
LINE
8
0
10
167.2
20
-72.45
11
167.2
21
-89.45
0
LINE
8
0
10
167.2
20
-70.4
11
185.2
21
-70.4
0
LINE
8
0
10
185.2
20
-70.4
11
185.2
21
-53.4
0
LINE
8
0
10
185.2
20
-53.4
11
167.2
21
-53.4
0
LINE
8
0
10
167.2
20
-53.4
11
167.2
21
-70.4
0
LINE
8
0
10
167.2
20
-51.35
11
185.2
21
-51.35
0
LINE
8
0
10
185.2
20
-51.35
11
185.2
21
-34.35
0
LINE
8
0
10
185.2
20
-34.35
11
167.2
21
-34.35
0
LINE
8
0
10
167.2
20
-34.35
11
167.2
21
-51.35
0
LINE
8
0
10
186.25
20
-108.5
11
204.25
21
-108.5
0
LINE
8
0
10
204.25
20
-108.5
11
204.25
21
-91.5
0
LINE
8
0
10
204.25
20
-91.5
11
186.25
21
-91.5
0
LINE
8
0
10
186.25
20
-91.5
11
186.25
21
-108.5
0
LINE
8
0
10
186.25
20
-89.45
11
204.25
21
-89.45
0
LINE
8
0
10
204.25
20
-89.45
11
204.25
21
-72.45
0
LINE
8
0
10
204.25
20
-72.45
11
186.25
21
-72.45
0
LINE
8
0
10
186.25
20
-72.45
11
186.25
21
-89.45
0
LINE
8
0
10
186.25
20
-70.4
11
204.25
21
-70.4
0
LINE
8
0
10
204.25
20
-70.4
11
204.25
21
-53.4
0
LINE
8
0
10
204.25
20
-53.4
11
186.25
21
-53.4
0
LINE
8
0
10
186.25
20
-53.4
11
186.25
21
-70.4
0
LINE
8
0
10
186.25
20
-51.35
11
204.25
21
-51.35
0
LINE
8
0
10
204.25
20
-51.35
11
204.25
21
-34.35
0
LINE
8
0
10
204.25
20
-34.35
11
186.25
21
-34.35
0
LINE
8
0
10
186.25
20
-34.35
11
186.25
21
-51.35
0
LINE
8
0
10
93.38125
20
-127.55
11
111.38125
21
-127.55
0
LINE
8
0
10
111.38125
20
-127.55
11
111.38125
21
-110.55
0
LINE
8
0
10
111.38125
20
-110.55
11
93.38125
21
-110.55
0
LINE
8
0
10
93.38125
20
-110.55
11
93.38125
21
-127.55
0
LINE
8
0
10
117.19375
20
-127.55
11
135.19375
21
-127.55
0
LINE
8
0
10
135.19375
20
-127.55
11
135.19375
21
-110.55
0
LINE
8
0
10
135.19375
20
-110.55
11
117.19375
21
-110.55
0
LINE
8
0
10
117.19375
20
-110.55
11
117.19375
21
-127.55
0
LINE
8
0
10
141.00625
20
-127.55
11
159.00625
21
-127.55
0
LINE
8
0
10
159.00625
20
-127.55
11
159.00625
21
-110.55
0
LINE
8
0
10
159.00625
20
-110.55
11
141.00625
21
-110.55
0
LINE
8
0
10
141.00625
20
-110.55
11
141.00625
21
-127.55
0
LINE
8
0
10
174.3415
20
-127.55
11
192.3415
21
-127.55
0
LINE
8
0
10
192.3415
20
-127.55
11
192.3415
21
-110.55
0
LINE
8
0
10
192.3415
20
-110.55
11
174.3415
21
-110.55
0
LINE
8
0
10
174.3415
20
-110.55
11
174.3415
21
-127.55
0
ENDSEC
0
EOF